<?xml version="1.0" encoding="UTF-8" standalone="no"?>
<!-- Created with Inkscape (http://www.inkscape.org/) -->

<svg
   xmlns:dc="http://purl.org/dc/elements/1.1/"
   xmlns:cc="http://creativecommons.org/ns#"
   xmlns:rdf="http://www.w3.org/1999/02/22-rdf-syntax-ns#"
   xmlns:svg="http://www.w3.org/2000/svg"
   xmlns="http://www.w3.org/2000/svg"
   version="1.1"
   width="247.89325"
   height="56.080875"
   id="svg2"
   xml:space="preserve"><metadata
     id="metadata8"><rdf:RDF><cc:Work
         rdf:about=""><dc:format>image/svg+xml</dc:format><dc:type
           rdf:resource="http://purl.org/dc/dcmitype/StillImage" /><dc:title></dc:title></cc:Work></rdf:RDF></metadata><defs
     id="defs6"><linearGradient
       x1="0"
       y1="0"
       x2="1"
       y2="0"
       id="linearGradient112"
       gradientUnits="userSpaceOnUse"
       gradientTransform="matrix(0,754.01575,754.01575,0,1094.1733,-8.5039368)"
       spreadMethod="pad"><stop
         id="stop114"
         style="stop-color:#ffffff;stop-opacity:1"
         offset="0" /><stop
         id="stop116"
         style="stop-color:#ffffff;stop-opacity:0"
         offset="1" /></linearGradient><linearGradient
       x1="0"
       y1="0"
       x2="1"
       y2="0"
       id="linearGradient146"
       gradientUnits="userSpaceOnUse"
       gradientTransform="matrix(0,408.189,408.189,0,1085.6694,337.32284)"
       spreadMethod="pad"><stop
         id="stop148"
         style="stop-color:#ffffff;stop-opacity:1"
         offset="0" /><stop
         id="stop150"
         style="stop-color:#ffffff;stop-opacity:0"
         offset="1" /></linearGradient></defs><g
     transform="matrix(1.25,0,0,-1.25,-1409.6859,875.45045)"
     id="g10"><g
       id="g5608"><path
         d="m 1250.8834,665.76506 c -1.599,0 -2.826,0.528 -4.026,1.599 l 0.486,0.557 c 1.099,-1.014 2.113,-1.485 3.583,-1.485 1.499,0 2.526,0.842 2.526,1.984 l 0,0.028 c 0,1.057 -0.557,1.671 -2.826,2.128 -2.398,0.484 -3.369,1.298 -3.369,2.811 l 0,0.029 c 0,1.484 1.356,2.626 3.212,2.626 1.456,0 2.412,-0.4 3.426,-1.213 l -0.472,-0.585 c -0.941,0.813 -1.884,1.128 -2.983,1.128 -1.47,0 -2.44,-0.843 -2.44,-1.884 l 0,-0.03 c 0,-1.056 0.542,-1.698 2.911,-2.183 2.313,-0.472 3.283,-1.299 3.283,-2.755 l 0,-0.029 c 0,-1.612 -1.384,-2.726 -3.311,-2.726"
         id="path214"
         style="fill:#ed174f;fill-opacity:1;fill-rule:nonzero;stroke:none" /><path
         d="m 1259.405,665.73676 c -2.098,0 -3.711,1.742 -3.711,3.782 l 0,0.029 c 0,2.041 1.627,3.811 3.711,3.811 1.37,0 2.227,-0.628 2.911,-1.341 l -0.499,-0.515 c -0.628,0.643 -1.341,1.2 -2.427,1.2 -1.656,0 -2.94,-1.385 -2.94,-3.126 l 0,-0.029 c 0,-1.756 1.327,-3.155 2.998,-3.155 1.028,0 1.827,0.529 2.44,1.214 l 0.486,-0.428 c -0.742,-0.842 -1.627,-1.442 -2.969,-1.442"
         id="path218"
         style="fill:#ed174f;fill-opacity:1;fill-rule:nonzero;stroke:none" /><path
         d="m 1269.5963,665.90766 0,4.325 c 0,1.499 -0.842,2.484 -2.312,2.484 -1.428,0 -2.527,-1.085 -2.527,-2.598 l 0,-4.211 -0.699,0 0,10.42 0.699,0 0,-4.496 c 0.486,0.856 1.299,1.527 2.627,1.527 1.841,0 2.912,-1.256 2.912,-2.998 l 0,-4.453 -0.7,0 z"
         id="path222"
         style="fill:#ed174f;fill-opacity:1;fill-rule:nonzero;stroke:none" /><path
         d="m 1278.7459,669.54726 c 0,1.756 -1.313,3.155 -2.997,3.155 -1.728,0 -2.97,-1.413 -2.97,-3.126 l 0,-0.029 c 0,-1.755 1.314,-3.154 2.998,-3.154 1.727,0 2.969,1.413 2.969,3.126 l 0,0.028 z m -2.997,-3.811 c -2.156,0 -3.726,1.742 -3.726,3.783 l 0,0.028 c 0,2.041 1.585,3.811 3.754,3.811 2.156,0 3.725,-1.741 3.725,-3.782 l 0,-0.029 c 0,-2.041 -1.584,-3.811 -3.753,-3.811"
         id="path226"
         style="fill:#ed174f;fill-opacity:1;fill-rule:nonzero;stroke:none" /><path
         d="m 1287.5957,669.54726 c 0,1.756 -1.313,3.155 -2.997,3.155 -1.727,0 -2.97,-1.413 -2.97,-3.126 l 0,-0.029 c 0,-1.755 1.314,-3.154 2.998,-3.154 1.727,0 2.969,1.413 2.969,3.126 l 0,0.028 z m -2.997,-3.811 c -2.156,0 -3.726,1.742 -3.726,3.783 l 0,0.028 c 0,2.041 1.585,3.811 3.754,3.811 2.156,0 3.726,-1.741 3.726,-3.782 l 0,-0.029 c 0,-2.041 -1.585,-3.811 -3.754,-3.811"
         id="path230"
         style="fill:#ed174f;fill-opacity:1;fill-rule:nonzero;stroke:none" /><path
         d="m 1290.3227,676.32856 0.699,0 0,-10.42 -0.699,0 0,10.42 z"
         id="path232"
         style="fill:#ed174f;fill-opacity:1;fill-rule:nonzero;stroke:none" /><path
         d="m 1192.0582,668.66236 c 0,1.228 -1.07,1.942 -3.04,1.942 l -3.383,0 0,-4.011 3.625,0 c 1.713,0 2.798,0.784 2.798,2.041 l 0,0.028 z m -0.557,4.711 c 0,1.099 -0.899,1.841 -2.498,1.841 l -3.368,0 0,-3.925 3.297,0 c 1.499,0 2.569,0.728 2.569,2.056 l 0,0.028 z m -2.269,-7.466 -4.34,0 0,9.992 4.126,0 c 1.941,0 3.24,-0.956 3.24,-2.455 l 0,-0.028 c 0,-1.357 -0.885,-2.041 -1.698,-2.37 1.198,-0.314 2.254,-0.999 2.254,-2.384 l 0,-0.028 c 0,-1.671 -1.427,-2.727 -3.582,-2.727"
         id="path236"
         style="fill:#ed174f;fill-opacity:1;fill-rule:nonzero;stroke:none" /><path
         d="m 1200.1515,665.90766 0,1.356 c -0.485,-0.856 -1.299,-1.527 -2.626,-1.527 -1.841,0 -2.912,1.256 -2.912,2.998 l 0,4.453 0.699,0 0,-4.325 c 0,-1.499 0.843,-2.484 2.312,-2.484 1.428,0 2.527,1.085 2.527,2.598 l 0,4.211 0.7,0 0,-7.28 -0.7,0 z"
         id="path240"
         style="fill:#ed174f;fill-opacity:1;fill-rule:nonzero;stroke:none" /><path
         d="m 1205.5753,665.76506 c -1.056,0 -2.213,0.428 -2.983,1.056 l 0.414,0.557 c 0.799,-0.614 1.684,-0.957 2.612,-0.957 0.985,0 1.755,0.543 1.755,1.386 l 0,0.028 c 0,0.857 -0.913,1.17 -1.927,1.455 -1.184,0.343 -2.497,0.7 -2.497,1.999 l 0,0.028 c 0,1.171 0.984,2.013 2.397,2.013 0.872,0 1.856,-0.314 2.584,-0.799 l -0.371,-0.586 c -0.671,0.443 -1.471,0.729 -2.241,0.729 -0.999,0 -1.656,-0.543 -1.656,-1.271 l 0,-0.028 c 0,-0.814 0.985,-1.114 2.027,-1.414 1.171,-0.328 2.398,-0.756 2.398,-2.04 l 0,-0.029 c 0,-1.299 -1.113,-2.127 -2.512,-2.127"
         id="path244"
         style="fill:#ed174f;fill-opacity:1;fill-rule:nonzero;stroke:none" /><path
         d="m 1210.1287,673.18756 0.699,0 0,-7.28 -0.699,0 0,7.28 z m -0.086,2.854 0.871,0 0,-0.956 -0.871,0 0,0.956 z"
         id="path246"
         style="fill:#ed174f;fill-opacity:1;fill-rule:nonzero;stroke:none" /><path
         d="m 1218.8358,665.90766 0,4.325 c 0,1.499 -0.843,2.484 -2.313,2.484 -1.427,0 -2.526,-1.085 -2.526,-2.598 l 0,-4.211 -0.699,0 0,7.28 0.699,0 0,-1.356 c 0.485,0.856 1.299,1.527 2.626,1.527 1.842,0 2.912,-1.256 2.912,-2.998 l 0,-4.453 -0.699,0 z"
         id="path250"
         style="fill:#ed174f;fill-opacity:1;fill-rule:nonzero;stroke:none" /><path
         d="m 1227.3001,669.89006 c -0.1,1.47 -0.942,2.827 -2.612,2.827 -1.442,0 -2.555,-1.214 -2.684,-2.827 l 5.296,0 z m -2.441,-3.497 c 1.128,0 1.899,0.499 2.498,1.142 l 0.485,-0.428 c -0.742,-0.8 -1.612,-1.37 -3.012,-1.37 -1.912,0 -3.568,1.526 -3.568,3.796 l 0,0.029 c 0,2.113 1.485,3.797 3.454,3.797 2.042,0 3.34,-1.656 3.34,-3.812 l 0,-0.028 c 0,-0.1 0,-0.143 -0.014,-0.257 l -6.038,0 c 0.129,-1.813 1.427,-2.869 2.855,-2.869"
         id="path254"
         style="fill:#ed174f;fill-opacity:1;fill-rule:nonzero;stroke:none" /><path
         d="m 1232.1673,665.76506 c -1.056,0 -2.212,0.428 -2.983,1.056 l 0.414,0.557 c 0.799,-0.614 1.684,-0.957 2.612,-0.957 0.985,0 1.756,0.543 1.756,1.386 l 0,0.028 c 0,0.857 -0.914,1.17 -1.927,1.455 -1.184,0.343 -2.498,0.7 -2.498,1.999 l 0,0.028 c 0,1.171 0.985,2.013 2.398,2.013 0.871,0 1.856,-0.314 2.583,-0.799 l -0.37,-0.586 c -0.672,0.443 -1.471,0.729 -2.242,0.729 -0.999,0 -1.656,-0.543 -1.656,-1.271 l 0,-0.028 c 0,-0.814 0.986,-1.114 2.027,-1.414 1.171,-0.328 2.398,-0.756 2.398,-2.04 l 0,-0.029 c 0,-1.299 -1.113,-2.127 -2.512,-2.127"
         id="path258"
         style="fill:#ed174f;fill-opacity:1;fill-rule:nonzero;stroke:none" /><path
         d="m 1238.8335,665.76506 c -1.056,0 -2.213,0.428 -2.984,1.056 l 0.415,0.557 c 0.799,-0.614 1.684,-0.957 2.612,-0.957 0.985,0 1.755,0.543 1.755,1.386 l 0,0.028 c 0,0.857 -0.913,1.17 -1.927,1.455 -1.184,0.343 -2.497,0.7 -2.497,1.999 l 0,0.028 c 0,1.171 0.984,2.013 2.398,2.013 0.871,0 1.855,-0.314 2.583,-0.799 l -0.371,-0.586 c -0.671,0.443 -1.471,0.729 -2.241,0.729 -0.999,0 -1.656,-0.543 -1.656,-1.271 l 0,-0.028 c 0,-0.814 0.985,-1.114 2.027,-1.414 1.171,-0.328 2.398,-0.756 2.398,-2.04 l 0,-0.029 c 0,-1.299 -1.113,-2.127 -2.512,-2.127"
         id="path262"
         style="fill:#ed174f;fill-opacity:1;fill-rule:nonzero;stroke:none" /><path
         d="m 1190.0014,681.92516 c -0.633,-0.737 -1.325,-1.083 -2.2,-1.083 -1.602,0 -2.248,1.13 -2.248,2.27 l 0,3.249 c 0,0.876 -0.23,1.049 -0.748,1.049 l 0,0.196 2.385,0 0,-0.196 c -0.542,0 -0.761,-0.196 -0.761,-1.037 l 0,-3.342 c 0,-1.014 0.565,-1.74 1.682,-1.74 0.761,0 1.429,0.381 1.89,1.095 l 0,3.975 c 0,0.761 -0.173,1.026 -0.703,1.049 l 0,0.196 2.328,0 0,-0.196 c -0.553,0 -0.749,-0.254 -0.749,-1.049 l 0,-4.113 c 0,-0.864 0.242,-1.049 0.749,-1.049 l 0,-0.196 -1.625,0 0,0.922 z"
         id="path266"
         style="fill:#000000;fill-opacity:1;fill-rule:nonzero;stroke:none" /><path
         d="m 1198.5979,681.00356 -0.196,0 -4.655,5.738 -0.024,0 0,-4.632 c 0,-0.668 0.266,-0.91 0.865,-0.91 l 0,-0.196 -2.005,0 0,0.196 c 0.553,0 0.818,0.172 0.818,1.129 l 0,3.86 c 0,0.737 -0.196,1.152 -0.979,1.221 l 0,0.197 1.694,0 4.125,-5.139 0.023,0 0,3.86 c 0,0.864 -0.231,1.082 -0.807,1.082 l 0,0.197 1.994,0 0,-0.197 c -0.646,0 -0.853,-0.264 -0.853,-1.037 l 0,-5.369 z"
         id="path270"
         style="fill:#000000;fill-opacity:1;fill-rule:nonzero;stroke:none" /><path
         d="m 1201.9625,682.24786 c 0,-0.806 0.196,-1.049 0.749,-1.049 l 0,-0.195 -2.374,0 0,0.195 c 0.541,0 0.749,0.208 0.749,1.049 l 0,4.114 c 0,0.829 -0.184,1.048 -0.749,1.048 l 0,0.196 2.374,0 0,-0.196 c -0.553,0 -0.749,-0.253 -0.749,-1.048 l 0,-4.114 z"
         id="path274"
         style="fill:#000000;fill-opacity:1;fill-rule:nonzero;stroke:none" /><path
         d="m 1206.6982,680.91126 -0.184,0 -2.04,5.358 c -0.311,0.807 -0.472,1.118 -1.095,1.141 l 0,0.196 2.397,0 0,-0.196 c -0.472,0 -0.703,-0.254 -0.507,-0.772 l 1.614,-4.263 1.532,4.113 c 0.207,0.565 0.104,0.922 -0.495,0.922 l 0,0.196 1.924,0 0,-0.208 c -0.496,0 -0.864,-0.38 -1.199,-1.279 l -1.947,-5.208 z"
         id="path278"
         style="fill:#000000;fill-opacity:1;fill-rule:nonzero;stroke:none" /><path
         d="m 1214.9145,683.50396 -0.196,0 c -0.139,0.565 -0.242,0.634 -0.922,0.634 l -1.636,0 0,-2.363 c 0,-0.323 0.115,-0.449 0.484,-0.449 l 1.152,0 c 0.968,0 1.21,0.046 1.602,0.911 l 0.196,0 -0.3,-1.233 -4.759,0 0,0.195 c 0.519,0 0.749,0.162 0.749,1.038 l 0,4.124 c 0,0.819 -0.184,1.049 -0.749,1.049 l 0,0.196 4.759,0 0,-1.106 -0.127,0 c -0.149,0.726 -0.38,0.783 -1.106,0.783 l -1.901,0 0,-2.823 1.844,0 c 0.449,0 0.622,0.081 0.714,0.646 l 0.196,0 0,-1.602 z"
         id="path282"
         style="fill:#000000;fill-opacity:1;fill-rule:nonzero;stroke:none" /><path
         d="m 1218.1757,684.33326 0.806,0 c 1.118,0 1.556,0.761 1.556,1.521 0,0.876 -0.657,1.498 -1.671,1.498 l -0.691,0 0,-3.019 z m 0,-2.085 c 0,-0.807 0.207,-1.049 0.748,-1.049 l 0,-0.196 -2.373,0 0,0.196 c 0.507,0 0.749,0.162 0.749,1.049 l 0,4.137 c 0,0.863 -0.219,1.025 -0.749,1.025 l 0,0.196 2.708,0 c 1.486,0 2.201,-0.853 2.201,-1.729 0,-0.726 -0.393,-1.336 -1.36,-1.625 1.233,-0.794 1.648,-2.973 2.742,-3.053 l 0,-0.196 -1.347,0 c -1.234,1.498 -1.58,3.054 -2.789,3.054 l -0.53,0 0,-1.809 z"
         id="path286"
         style="fill:#000000;fill-opacity:1;fill-rule:nonzero;stroke:none" /><path
         d="m 1227.244,686.15436 -0.196,0 c -0.104,0.979 -0.795,1.359 -1.463,1.359 -0.692,0 -1.187,-0.38 -1.187,-0.991 0,-1.221 1.682,-1.544 2.627,-2.488 0.461,-0.461 0.576,-0.876 0.576,-1.314 0,-1.037 -0.841,-1.879 -1.878,-1.879 -0.703,0 -1.29,0.347 -1.51,0.347 -0.115,0 -0.196,-0.082 -0.253,-0.254 l -0.196,0 0,1.786 0.196,0 c 0.012,-1.221 1.014,-1.624 1.59,-1.624 0.795,0 1.326,0.46 1.326,1.174 0,1.141 -1.775,1.672 -2.513,2.409 -0.403,0.403 -0.565,0.864 -0.565,1.383 0,1.014 0.726,1.705 1.798,1.705 0.703,0 1.037,-0.254 1.29,-0.254 0.105,0 0.128,0.023 0.173,0.185 l 0.185,0 0,-1.544 z"
         id="path290"
         style="fill:#000000;fill-opacity:1;fill-rule:nonzero;stroke:none" /><path
         d="m 1230.0207,682.24786 c 0,-0.806 0.196,-1.049 0.749,-1.049 l 0,-0.195 -2.374,0 0,0.195 c 0.542,0 0.749,0.208 0.749,1.049 l 0,4.114 c 0,0.829 -0.184,1.048 -0.749,1.048 l 0,0.196 2.374,0 0,-0.196 c -0.553,0 -0.749,-0.253 -0.749,-1.048 l 0,-4.114 z"
         id="path294"
         style="fill:#000000;fill-opacity:1;fill-rule:nonzero;stroke:none" /><path
         d="m 1234.8833,682.21306 c 0,-0.794 0.15,-1.014 0.715,-1.014 l 0,-0.196 -2.34,0 0,0.196 c 0.473,0 0.75,0.138 0.75,1.049 l 0,5.035 -0.957,0 c -0.887,0 -1.29,-0.253 -1.348,-0.945 l -0.196,0 0,1.51 0.196,0 c 0.092,-0.081 0.196,-0.139 0.357,-0.184 0.15,-0.035 0.357,-0.058 0.634,-0.058 l 3.457,0 c 0.576,0 0.841,0.069 1.049,0.242 l 0.207,0 0,-1.51 -0.127,0 c -0.127,0.554 -0.345,0.945 -1.394,0.945 l -1.003,0 0,-5.07 z"
         id="path298"
         style="fill:#000000;fill-opacity:1;fill-rule:nonzero;stroke:none" /><path
         d="m 1241.509,682.24786 c 0,-0.795 0.161,-1.049 0.726,-1.049 l 0,-0.195 -2.408,0 0,0.195 c 0.507,0 0.807,0.105 0.807,1.049 l 0,2.074 -1.406,2.19 c -0.461,0.725 -0.657,0.875 -1.176,0.898 l 0,0.196 2.582,0 0,-0.196 c -0.727,0 -0.807,-0.253 -0.542,-0.657 l 1.302,-2.005 1.048,1.66 c 0.323,0.518 0.346,1.002 -0.207,1.002 l 0,0.196 1.809,0 0,-0.196 c -0.507,-0.034 -0.679,-0.173 -1.048,-0.749 l -1.487,-2.339 0,-2.074 z"
         id="path302"
         style="fill:#000000;fill-opacity:1;fill-rule:nonzero;stroke:none" /><path
         d="m 1251.3844,681.09596 c 1.659,0 2.524,1.578 2.524,3.18 0,2.074 -1.107,3.238 -2.467,3.238 -1.555,0 -2.546,-1.279 -2.546,-3.192 0,-1.924 1.002,-3.226 2.489,-3.226 m 0.035,6.671 c 1.959,0 3.503,-1.509 3.503,-3.434 0,-1.958 -1.556,-3.491 -3.527,-3.491 -1.97,0 -3.514,1.533 -3.514,3.491 0,1.96 1.521,3.434 3.538,3.434"
         id="path306"
         style="fill:#000000;fill-opacity:1;fill-rule:nonzero;stroke:none" /><path
         d="m 1257.7682,682.24786 c 0,-0.806 0.196,-1.049 0.748,-1.049 l 0,-0.195 -2.373,0 0,0.195 c 0.553,0 0.749,0.231 0.749,1.049 l 0,4.114 c 0,0.829 -0.196,1.048 -0.749,1.048 l 0,0.196 4.529,0 0,-1.175 -0.151,0 c -0.161,0.806 -0.356,0.853 -1.071,0.853 l -1.682,0 0,-2.766 1.717,0 c 0.495,0 0.68,0.253 0.737,0.784 l 0.184,0 0,-1.855 -0.184,0 c -0.023,0.472 -0.254,0.748 -0.715,0.748 l -1.739,0 0,-1.947 z"
         id="path310"
         style="fill:#000000;fill-opacity:1;fill-rule:nonzero;stroke:none" /><path
         d="m 1268.6568,683.50396 -0.196,0 c -0.138,0.565 -0.242,0.634 -0.921,0.634 l -1.637,0 0,-2.363 c 0,-0.323 0.115,-0.449 0.484,-0.449 l 1.153,0 c 0.967,0 1.21,0.046 1.601,0.911 l 0.196,0 -0.3,-1.233 -4.759,0 0,0.195 c 0.519,0 0.749,0.162 0.749,1.038 l 0,4.124 c 0,0.819 -0.184,1.049 -0.749,1.049 l 0,0.196 4.759,0 0,-1.106 -0.126,0 c -0.15,0.726 -0.38,0.783 -1.106,0.783 l -1.902,0 0,-2.823 1.844,0 c 0.449,0 0.622,0.081 0.714,0.646 l 0.196,0 0,-1.602 z"
         id="path314"
         style="fill:#000000;fill-opacity:1;fill-rule:nonzero;stroke:none" /><path
         d="m 1271.8838,682.47826 c 0,-1.026 0.23,-1.221 0.841,-1.221 l 0.68,0 c 1.636,0 2.616,1.129 2.616,2.927 0,1.578 -0.795,3.168 -2.881,3.168 l -1.256,0 0,-4.874 z m -0.876,3.883 c 0,0.795 -0.196,1.049 -0.749,1.049 l 0,0.196 3.054,0 c 2.523,0 3.722,-1.694 3.722,-3.411 0,-1.659 -1.049,-3.192 -3.641,-3.192 l -3.135,0 0,0.196 c 0.53,0 0.749,0.23 0.749,1.049 l 0,4.113 z"
         id="path318"
         style="fill:#000000;fill-opacity:1;fill-rule:nonzero;stroke:none" /><path
         d="m 1279.6616,682.24786 c 0,-0.806 0.196,-1.049 0.749,-1.049 l 0,-0.195 -2.374,0 0,0.195 c 0.542,0 0.749,0.208 0.749,1.049 l 0,4.114 c 0,0.829 -0.184,1.048 -0.749,1.048 l 0,0.196 2.374,0 0,-0.196 c -0.553,0 -0.749,-0.253 -0.749,-1.048 l 0,-4.114 z"
         id="path322"
         style="fill:#000000;fill-opacity:1;fill-rule:nonzero;stroke:none" /><path
         d="m 1287.255,681.00356 -0.196,0 -4.655,5.738 -0.023,0 0,-4.632 c 0,-0.668 0.265,-0.91 0.864,-0.91 l 0,-0.196 -2.005,0 0,0.196 c 0.553,0 0.818,0.172 0.818,1.129 l 0,3.86 c 0,0.737 -0.196,1.152 -0.98,1.221 l 0,0.197 1.695,0 4.125,-5.139 0.023,0 0,3.86 c 0,0.864 -0.231,1.082 -0.807,1.082 l 0,0.197 1.994,0 0,-0.197 c -0.646,0 -0.853,-0.264 -0.853,-1.037 l 0,-5.369 z"
         id="path326"
         style="fill:#000000;fill-opacity:1;fill-rule:nonzero;stroke:none" /><path
         d="m 1290.7122,682.36296 c 0,-0.887 0.161,-1.106 0.68,-1.106 l 0.541,0 c 0.669,0 1.302,0.45 1.302,1.417 0,0.968 -0.737,1.625 -1.901,1.625 l -0.622,0 0,-1.936 z m 0.68,2.19 c 0.967,0 1.555,0.553 1.555,1.382 0,0.83 -0.507,1.418 -1.579,1.418 l -0.656,0 0,-2.8 0.68,0 z m -1.556,1.808 c 0,0.842 -0.196,1.049 -0.749,1.049 l 0,0.196 2.489,0 c 1.59,0 2.293,-0.772 2.293,-1.613 0,-0.726 -0.415,-1.199 -1.325,-1.498 l 0,-0.023 c 1.014,-0.207 1.705,-0.968 1.705,-1.856 0,-0.991 -0.876,-1.612 -2.12,-1.612 l -3.042,0 0,0.195 c 0.553,0 0.749,0.242 0.749,1.049 l 0,4.113 z"
         id="path330"
         style="fill:#000000;fill-opacity:1;fill-rule:nonzero;stroke:none" /><path
         d="m 1300.3221,681.92516 c -0.634,-0.737 -1.325,-1.083 -2.201,-1.083 -1.601,0 -2.247,1.13 -2.247,2.27 l 0,3.249 c 0,0.876 -0.23,1.049 -0.749,1.049 l 0,0.196 2.386,0 0,-0.196 c -0.542,0 -0.761,-0.196 -0.761,-1.037 l 0,-3.342 c 0,-1.014 0.564,-1.74 1.682,-1.74 0.761,0 1.429,0.381 1.89,1.095 l 0,3.975 c 0,0.761 -0.173,1.026 -0.703,1.049 l 0,0.196 2.328,0 0,-0.196 c -0.553,0 -0.749,-0.254 -0.749,-1.049 l 0,-4.113 c 0,-0.864 0.242,-1.049 0.749,-1.049 l 0,-0.196 -1.625,0 0,0.922 z"
         id="path334"
         style="fill:#000000;fill-opacity:1;fill-rule:nonzero;stroke:none" /><path
         d="m 1304.5395,684.33326 0.807,0 c 1.117,0 1.555,0.761 1.555,1.521 0,0.876 -0.657,1.498 -1.671,1.498 l -0.691,0 0,-3.019 z m 0,-2.085 c 0,-0.807 0.207,-1.049 0.749,-1.049 l 0,-0.196 -2.374,0 0,0.196 c 0.507,0 0.749,0.162 0.749,1.049 l 0,4.137 c 0,0.863 -0.218,1.025 -0.749,1.025 l 0,0.196 2.708,0 c 1.487,0 2.201,-0.853 2.201,-1.729 0,-0.726 -0.392,-1.336 -1.36,-1.625 1.233,-0.794 1.648,-2.973 2.743,-3.053 l 0,-0.196 -1.349,0 c -1.232,1.498 -1.578,3.054 -2.788,3.054 l -0.53,0 0,-1.809 z"
         id="path338"
         style="fill:#000000;fill-opacity:1;fill-rule:nonzero;stroke:none" /><path
         d="m 1315.901,681.00356 c -0.368,-0.104 -1.544,-0.162 -1.843,-0.162 -2.904,0 -3.872,1.752 -3.872,3.273 0,2.339 1.774,3.652 3.399,3.652 0.933,0 1.291,-0.31 1.798,-0.31 0.207,0 0.299,0.057 0.369,0.219 l 0.207,0 0,-1.948 -0.184,0 c -0.174,1.256 -1.291,1.786 -2.19,1.786 -1.359,0 -2.385,-1.186 -2.385,-2.996 0,-1.935 1.152,-3.364 2.72,-3.364 0.471,0 1.106,0.115 1.106,0.703 l 0,0.714 c 0,0.806 -0.185,1.094 -0.726,1.094 l -0.254,0 0,0.197 2.673,0 0,-0.197 c -0.645,0 -0.818,-0.31 -0.818,-0.886 l 0,-1.775 z"
         id="path342"
         style="fill:#000000;fill-opacity:1;fill-rule:nonzero;stroke:none" /><path
         d="m 1319.2433,684.16046 0,-1.913 c 0,-0.795 0.196,-1.048 0.761,-1.048 l 0,-0.196 -2.386,0 0,0.196 c 0.507,0 0.749,0.173 0.749,1.048 l 0,4.114 c 0,0.784 -0.161,1.049 -0.749,1.049 l 0,0.196 2.386,0 0,-0.196 c -0.52,0 -0.761,-0.207 -0.761,-1.049 l 0,-1.878 3.595,0 0,1.878 c 0,0.807 -0.173,1.049 -0.738,1.049 l 0,0.196 2.363,0 0,-0.196 c -0.565,0 -0.749,-0.265 -0.749,-1.049 l 0,-4.114 c 0,-0.783 0.184,-1.048 0.749,-1.048 l 0,-0.196 -2.363,0 0,0.196 c 0.519,0 0.738,0.173 0.738,1.048 l 0,1.913 -3.595,0 z"
         id="path346"
         style="fill:#000000;fill-opacity:1;fill-rule:nonzero;stroke:none" /><path
         d="m 1132.2767,682.13256 c 0.365,-0.081 0.479,-0.035 0.538,0.224 l 0.09,-0.02 -0.239,-1.072 -0.09,0.02 c 0.048,0.216 0.013,0.357 -0.405,0.45 l -2.307,0.516 -0.097,-0.438 c -0.092,-0.406 -0.018,-0.617 0.293,-0.715 l -0.019,-0.089 -0.692,0.155 0.02,0.089 c 0.047,0.034 0.083,0.076 0.121,0.145 0.031,0.066 0.063,0.158 0.092,0.285 l 0.353,1.584 c 0.06,0.263 0.056,0.392 0,0.504 l 0.021,0.096 0.692,-0.154 -0.014,-0.059 c -0.266,-10e-4 -0.468,-0.062 -0.576,-0.542 l -0.102,-0.459 2.323,-0.52 z"
         id="path350"
         style="fill:#002b5c;fill-opacity:1;fill-rule:nonzero;stroke:none" /><path
         d="m 1132.4398,685.57386 0.807,-0.394 c 0.336,-0.164 0.484,-0.134 0.6,0.105 l 0.082,-0.04 -0.491,-1.007 -0.082,0.041 c 0.104,0.213 0.081,0.352 -0.289,0.532 l -1.736,0.846 c -0.33,0.161 -0.475,0.148 -0.597,-0.1 l -0.083,0.041 0.492,1.006 0.082,-0.041 c -0.106,-0.218 -0.069,-0.363 0.287,-0.536 l 0.792,-0.386 0.74,1.516 -0.792,0.387 c -0.34,0.167 -0.478,0.144 -0.594,-0.096 l -0.083,0.041 0.486,0.997 0.082,-0.04 c -0.116,-0.239 -0.042,-0.371 0.289,-0.532 l 1.737,-0.847 c 0.329,-0.161 0.48,-0.138 0.596,0.1 l 0.082,-0.041 -0.486,-0.995 -0.082,0.04 c 0.106,0.218 0.078,0.346 -0.291,0.527 l -0.807,0.393 -0.741,-1.517 z"
         id="path354"
         style="fill:#002b5c;fill-opacity:1;fill-rule:nonzero;stroke:none" /><path
         d="m 1136.1052,690.67156 -0.058,-0.071 c -0.246,0.119 -0.302,0.103 -0.507,-0.142 l -0.491,-0.591 0.852,-0.71 c 0.116,-0.097 0.197,-0.093 0.308,0.039 l 0.346,0.416 c 0.291,0.35 0.347,0.451 0.153,0.851 l 0.058,0.072 0.355,-0.478 -1.43,-1.717 -0.071,0.057 c 0.157,0.188 0.167,0.32 -0.149,0.584 l -1.488,1.239 c -0.295,0.244 -0.433,0.248 -0.603,0.045 l -0.071,0.059 1.43,1.716 0.4,-0.332 -0.039,-0.046 c -0.307,0.164 -0.397,0.098 -0.615,-0.164 l -0.571,-0.685 1.018,-0.849 0.554,0.665 c 0.135,0.163 0.158,0.25 -0.017,0.453 l 0.058,0.07 0.578,-0.481 z"
         id="path358"
         style="fill:#002b5c;fill-opacity:1;fill-rule:nonzero;stroke:none" /><path
         d="m 1141.9132,694.16406 c -0.089,-0.447 -0.293,-0.749 -0.651,-0.95 -0.656,-0.369 -1.18,-0.057 -1.442,0.411 l -0.749,1.329 c -0.203,0.358 -0.336,0.377 -0.548,0.256 l -0.045,0.08 0.975,0.551 0.046,-0.081 c -0.222,-0.125 -0.266,-0.255 -0.072,-0.6 l 0.77,-1.366 c 0.234,-0.415 0.631,-0.583 1.089,-0.325 0.311,0.176 0.497,0.486 0.521,0.884 l -0.916,1.626 c -0.175,0.311 -0.308,0.379 -0.53,0.267 l -0.044,0.08 0.951,0.537 0.046,-0.081 c -0.226,-0.127 -0.248,-0.276 -0.065,-0.601 l 0.948,-1.682 c 0.199,-0.354 0.341,-0.374 0.549,-0.257 l 0.044,-0.081 -0.664,-0.374 -0.213,0.377 z"
         id="path362"
         style="fill:#002b5c;fill-opacity:1;fill-rule:nonzero;stroke:none" /><path
         d="m 1146.8293,695.38996 -0.09,-0.023 -2.786,2.068 -0.01,-0.002 0.54,-2.108 c 0.077,-0.303 0.226,-0.383 0.499,-0.313 l 0.022,-0.089 -0.911,-0.233 -0.024,0.088 c 0.253,0.065 0.353,0.175 0.241,0.609 l -0.45,1.756 c -0.085,0.336 -0.223,0.502 -0.587,0.442 l -0.023,0.09 0.77,0.196 2.477,-1.857 0.01,0.003 -0.45,1.756 c -0.1,0.393 -0.23,0.465 -0.492,0.399 l -0.023,0.089 0.906,0.231 0.023,-0.088 c -0.293,-0.076 -0.357,-0.22 -0.267,-0.571 l 0.626,-2.443 z"
         id="path366"
         style="fill:#002b5c;fill-opacity:1;fill-rule:nonzero;stroke:none" /><path
         d="m 1149.3569,696.21736 c 0.018,-0.378 0.116,-0.487 0.376,-0.474 l 0,-0.093 -1.113,-0.056 -0.01,0.093 c 0.254,0.013 0.346,0.115 0.328,0.509 l -0.096,1.929 c -0.021,0.389 -0.113,0.487 -0.377,0.475 l 0,0.092 1.113,0.055 0,-0.092 c -0.26,-0.013 -0.346,-0.136 -0.327,-0.509 l 0.096,-1.929 z"
         id="path370"
         style="fill:#002b5c;fill-opacity:1;fill-rule:nonzero;stroke:none" /><path
         d="m 1152.4886,695.43936 -0.085,0.011 -0.618,2.621 c -0.095,0.394 -0.151,0.55 -0.439,0.599 l 0.012,0.09 1.115,-0.148 -0.012,-0.09 c -0.22,0.028 -0.342,-0.075 -0.283,-0.329 l 0.487,-2.084 0.968,1.82 c 0.131,0.25 0.105,0.422 -0.174,0.459 l 0.013,0.092 0.895,-0.12 -0.013,-0.096 c -0.231,0.031 -0.425,-0.123 -0.637,-0.521 l -1.229,-2.304 z"
         id="path374"
         style="fill:#002b5c;fill-opacity:1;fill-rule:nonzero;stroke:none" /><path
         d="m 1157.3789,695.37996 -0.087,0.031 c 0.03,0.272 0,0.319 -0.303,0.428 l -0.722,0.264 -0.382,-1.041 c -0.052,-0.143 -0.021,-0.217 0.142,-0.277 l 0.509,-0.186 c 0.425,-0.155 0.54,-0.174 0.853,0.144 l 0.085,-0.032 -0.331,-0.495 -2.099,0.767 0.033,0.087 c 0.228,-0.083 0.355,-0.049 0.497,0.337 l 0.665,1.818 c 0.133,0.361 0.088,0.492 -0.161,0.583 l 0.032,0.087 2.099,-0.768 -0.179,-0.487 -0.056,0.02 c 0.051,0.345 -0.041,0.407 -0.361,0.524 l -0.838,0.307 -0.456,-1.246 0.813,-0.296 c 0.198,-0.073 0.287,-0.065 0.419,0.169 l 0.086,-0.031 -0.258,-0.707 z"
         id="path378"
         style="fill:#002b5c;fill-opacity:1;fill-rule:nonzero;stroke:none" /><path
         d="m 1160.0498,694.29656 0.208,-0.137 c 0.474,-0.313 0.208,-1.012 0.304,-1.918 l 0.529,-0.349 0.05,0.077 c -0.408,0.315 -0.01,1.277 -0.286,1.906 0.454,-0.137 0.764,0.001 0.952,0.286 0.226,0.343 0.167,0.863 -0.417,1.246 l -1.061,0.7 -0.05,-0.076 c 0.207,-0.137 0.252,-0.258 0.028,-0.597 l -1.068,-1.622 c -0.229,-0.347 -0.366,-0.349 -0.564,-0.217 l -0.051,-0.077 0.931,-0.613 0.05,0.076 c -0.212,0.141 -0.23,0.289 -0.023,0.606 l 0.468,0.709 z m 0.85,1.292 0.272,-0.179 c 0.397,-0.262 0.493,-0.675 0.268,-1.018 -0.197,-0.299 -0.564,-0.483 -1.002,-0.195 l -0.316,0.209 0.778,1.183 z"
         id="path382"
         style="fill:#002b5c;fill-opacity:1;fill-rule:nonzero;stroke:none" /><path
         d="m 1164.9875,691.48626 -0.064,0.066 c 0.293,0.357 0.193,0.714 -0.028,0.937 -0.228,0.231 -0.518,0.272 -0.723,0.07 -0.408,-0.402 0.039,-1.071 0.034,-1.698 0,-0.307 -0.103,-0.481 -0.251,-0.626 -0.346,-0.342 -0.906,-0.337 -1.247,0.009 -0.232,0.236 -0.309,0.547 -0.381,0.619 -0.037,0.04 -0.092,0.04 -0.169,0.002 l -0.065,0.065 0.598,0.589 0.064,-0.065 c -0.404,-0.407 -0.209,-0.875 -0.018,-1.068 0.262,-0.266 0.589,-0.291 0.829,-0.056 0.382,0.375 -0.025,1.144 -0.022,1.634 0,0.268 0.103,0.473 0.277,0.645 0.339,0.333 0.81,0.318 1.163,-0.04 0.231,-0.235 0.256,-0.431 0.34,-0.516 0.034,-0.034 0.05,-0.034 0.119,0.003 l 0.06,-0.062 -0.516,-0.508 z"
         id="path386"
         style="fill:#002b5c;fill-opacity:1;fill-rule:nonzero;stroke:none" /><path
         d="m 1165.2505,688.16936 c -0.312,-0.216 -0.352,-0.356 -0.204,-0.57 l -0.076,-0.052 -0.635,0.916 0.076,0.053 c 0.145,-0.209 0.279,-0.234 0.604,-0.009 l 1.589,1.1 c 0.319,0.222 0.355,0.352 0.204,0.571 l 0.075,0.051 0.635,-0.915 -0.075,-0.053 c -0.149,0.214 -0.299,0.221 -0.605,0.009 l -1.588,-1.101 z"
         id="path390"
         style="fill:#002b5c;fill-opacity:1;fill-rule:nonzero;stroke:none" /><path
         d="m 1166.7937,685.35716 c -0.339,-0.155 -0.403,-0.262 -0.293,-0.504 l -0.083,-0.037 -0.458,0.997 0.083,0.039 c 0.094,-0.202 0.206,-0.294 0.595,-0.116 l 2.149,0.986 -0.186,0.409 c -0.174,0.378 -0.362,0.501 -0.668,0.39 l -0.038,0.083 0.644,0.295 0.038,-0.082 c -0.016,-0.056 -0.02,-0.111 -0.01,-0.189 0.015,-0.071 0.045,-0.164 0.098,-0.282 l 0.678,-1.476 c 0.112,-0.246 0.194,-0.346 0.307,-0.401 l 0.042,-0.087 -0.645,-0.297 -0.025,0.055 c 0.211,0.163 0.336,0.333 0.13,0.781 l -0.196,0.427 -2.164,-0.991 z"
         id="path394"
         style="fill:#002b5c;fill-opacity:1;fill-rule:nonzero;stroke:none" /><path
         d="m 1168.0164,681.58776 c -0.365,-0.079 -0.467,-0.177 -0.411,-0.436 l -0.09,-0.02 -0.236,1.106 0.09,0.019 c 0.05,-0.233 0.126,-0.36 0.561,-0.267 l 0.951,0.203 0.868,0.862 c 0.288,0.282 0.338,0.387 0.298,0.627 l 0.089,0.02 0.254,-1.186 -0.09,-0.018 c -0.072,0.333 -0.196,0.345 -0.355,0.184 l -0.793,-0.796 0.866,-0.318 c 0.269,-0.097 0.494,-0.061 0.44,0.194 l 0.089,0.02 0.178,-0.831 -0.09,-0.02 c -0.066,0.229 -0.145,0.296 -0.447,0.408 l -1.22,0.453 -0.952,-0.204 z"
         id="path398"
         style="fill:#002b5c;fill-opacity:1;fill-rule:nonzero;stroke:none" /><path
         d="m 1131.1164,674.18336 c -0.885,-0.254 -1.375,-1.15 -1.119,-2.04 0.255,-0.888 1.149,-1.392 2.034,-1.137 0.867,0.25 1.348,1.142 1.094,2.025 -0.262,0.91 -1.125,1.406 -2.009,1.152 m 0.127,-0.46 c 0.863,0.249 1.568,-0.033 1.77,-0.735 0.176,-0.612 -0.204,-1.263 -1.14,-1.532 -0.724,-0.208 -1.548,-0.024 -1.763,0.726 -0.193,0.67 0.264,1.292 1.133,1.541"
         id="path402"
         style="fill:#002b5c;fill-opacity:1;fill-rule:nonzero;stroke:none" /><path
         d="m 1132.3519,668.16406 c -0.33,-0.187 -0.382,-0.324 -0.254,-0.549 l -0.079,-0.047 -0.553,0.968 0.08,0.047 c 0.129,-0.226 0.269,-0.253 0.602,-0.062 l 1.678,0.957 c 0.338,0.193 0.381,0.323 0.253,0.55 l 0.08,0.046 1.054,-1.847 -0.48,-0.273 -0.035,0.06 c 0.292,0.253 0.266,0.345 0.099,0.636 l -0.392,0.686 -1.128,-0.644 0.4,-0.7 c 0.115,-0.202 0.262,-0.217 0.492,-0.118 l 0.042,-0.075 -0.756,-0.431 -0.043,0.074 c 0.187,0.12 0.246,0.278 0.139,0.466 l -0.406,0.71 -0.793,-0.454 z"
         id="path406"
         style="fill:#002b5c;fill-opacity:1;fill-rule:nonzero;stroke:none" /><path
         d="m 1138.2971,662.18676 -0.071,0.058 c 0.118,0.246 0.101,0.302 -0.146,0.503 l -0.594,0.489 -0.704,-0.858 c -0.095,-0.117 -0.092,-0.197 0.043,-0.307 l 0.417,-0.344 c 0.352,-0.287 0.454,-0.344 0.853,-0.145 l 0.072,-0.059 -0.476,-0.358 -1.728,1.417 0.058,0.071 c 0.188,-0.154 0.32,-0.164 0.58,0.154 l 1.229,1.497 c 0.243,0.297 0.246,0.436 0.04,0.604 l 0.059,0.071 1.727,-1.417 -0.329,-0.402 -0.046,0.037 c 0.162,0.309 0.095,0.398 -0.168,0.615 l -0.69,0.566 -0.841,-1.025 0.669,-0.55 c 0.163,-0.132 0.25,-0.155 0.452,0.022 l 0.071,-0.058 -0.477,-0.581 z"
         id="path410"
         style="fill:#002b5c;fill-opacity:1;fill-rule:nonzero;stroke:none" /><path
         d="m 1140.4528,660.08216 c -0.161,-0.35 -0.299,-0.405 -0.526,-0.301 l -0.038,-0.083 1.337,-0.616 c 1.106,-0.509 1.854,-0.062 2.18,0.644 0.338,0.733 0.159,1.691 -0.917,2.187 l -1.302,0.601 -0.039,-0.085 c 0.236,-0.108 0.27,-0.255 0.114,-0.594 l -0.809,-1.753 z m 1.376,2.004 0.536,-0.248 c 0.89,-0.408 0.916,-1.243 0.606,-1.917 -0.353,-0.767 -0.993,-1.054 -1.691,-0.734 l -0.289,0.134 c -0.261,0.12 -0.321,0.248 -0.12,0.687 l 0.958,2.078 z"
         id="path414"
         style="fill:#002b5c;fill-opacity:1;fill-rule:nonzero;stroke:none" /><path
         d="m 1145.9079,658.12566 c -0.082,-0.369 -0.017,-0.502 0.238,-0.558 l -0.021,-0.089 -1.088,0.24 0.019,0.09 c 0.249,-0.055 0.366,0.019 0.45,0.405 l 0.416,1.886 c 0.084,0.381 0.021,0.499 -0.238,0.557 l 0.02,0.09 1.088,-0.24 -0.019,-0.09 c -0.254,0.055 -0.37,-0.04 -0.45,-0.405 l -0.415,-1.886 z"
         id="path418"
         style="fill:#002b5c;fill-opacity:1;fill-rule:nonzero;stroke:none" /><path
         d="m 1151.5142,657.12466 -0.091,0 -2.216,2.67 -0.011,0 0.025,-2.176 c 0,-0.312 0.128,-0.426 0.41,-0.422 l 10e-4,-0.093 -0.942,-0.008 -10e-4,0.09 c 0.26,0.003 0.384,0.085 0.378,0.536 l -0.02,1.812 c 0,0.346 -0.097,0.539 -0.466,0.569 l -10e-4,0.092 0.796,0.008 1.963,-2.392 0.011,10e-4 -0.02,1.812 c -0.01,0.406 -0.114,0.507 -0.385,0.504 l 0,0.093 0.937,0.011 10e-4,-0.093 c -0.304,-0.003 -0.399,-0.13 -0.396,-0.492 l 0.028,-2.522 z"
         id="path422"
         style="fill:#002b5c;fill-opacity:1;fill-rule:nonzero;stroke:none" /><path
         d="m 1154.79,659.23376 0.282,0.077 c 0.527,0.145 0.943,-0.061 1.063,-0.499 0.121,-0.438 -0.111,-0.72 -0.413,-0.803 l -0.245,-0.069 c -0.234,-0.065 -0.335,0.016 -0.446,0.418 l -0.241,0.876 z m -0.141,-1.039 c 0.101,-0.364 0.043,-0.499 -0.208,-0.566 l 0.023,-0.091 1.378,0.38 c 0.564,0.155 0.883,0.546 0.758,0.995 -0.11,0.402 -0.517,0.659 -1.002,0.627 l 0,0.01 c 0.375,0.249 0.504,0.514 0.413,0.844 -0.104,0.381 -0.518,0.643 -1.239,0.444 l -1.126,-0.31 0.024,-0.088 c 0.25,0.068 0.365,0 0.47,-0.382 l 0.512,-1.863 z m 0.11,1.152 -0.349,1.269 0.297,0.082 c 0.485,0.133 0.788,-0.069 0.892,-0.446 0.103,-0.375 -0.094,-0.698 -0.533,-0.819 l -0.307,-0.086 z"
         id="path426"
         style="fill:#002b5c;fill-opacity:1;fill-rule:nonzero;stroke:none" /><path
         d="m 1161.0627,660.73306 c -0.082,-0.449 -0.281,-0.753 -0.635,-0.96 -0.65,-0.379 -1.18,-0.074 -1.45,0.388 l -0.769,1.319 c -0.207,0.355 -0.342,0.368 -0.552,0.248 l -0.046,0.077 0.967,0.566 0.046,-0.079 c -0.219,-0.128 -0.262,-0.261 -0.062,-0.601 l 0.791,-1.356 c 0.24,-0.41 0.64,-0.571 1.093,-0.307 0.309,0.181 0.49,0.493 0.508,0.892 l -0.942,1.613 c -0.179,0.307 -0.312,0.374 -0.532,0.258 l -0.047,0.08 0.943,0.55 0.047,-0.079 c -0.225,-0.131 -0.243,-0.28 -0.055,-0.602 l 0.973,-1.669 c 0.205,-0.35 0.346,-0.367 0.552,-0.248 l 0.047,-0.079 -0.659,-0.385 -0.218,0.374 z"
         id="path430"
         style="fill:#002b5c;fill-opacity:1;fill-rule:nonzero;stroke:none" /><path
         d="m 1163.4155,663.84796 0.175,0.177 c 0.399,0.404 1.033,0.007 1.941,-0.075 l 0.444,0.451 -0.066,0.065 c -0.388,-0.339 -1.252,0.24 -1.924,0.09 0.222,0.418 0.147,0.751 -0.096,0.99 -0.292,0.29 -0.814,0.332 -1.304,-0.165 l -0.892,-0.906 0.065,-0.064 c 0.175,0.177 0.302,0.197 0.59,-0.088 l 1.383,-1.365 c 0.297,-0.292 0.271,-0.425 0.103,-0.596 l 0.066,-0.065 0.783,0.795 -0.066,0.064 c -0.177,-0.18 -0.328,-0.169 -0.597,0.097 l -0.605,0.595 z m -1.101,1.087 0.227,0.231 c 0.335,0.339 0.76,0.353 1.052,0.064 0.254,-0.25 0.364,-0.647 0,-1.021 l -0.267,-0.27 -1.008,0.996 z"
         id="path434"
         style="fill:#002b5c;fill-opacity:1;fill-rule:nonzero;stroke:none" /><path
         d="m 1168.5088,668.16406 c -0.049,-0.174 -0.313,-0.659 -0.386,-0.779 -0.709,-1.165 -1.648,-1.125 -2.258,-0.753 -0.938,0.57 -1.032,1.603 -0.635,2.254 0.229,0.375 0.441,0.443 0.565,0.647 0.05,0.082 0.05,0.132 0,0.201 l 0.051,0.083 0.781,-0.476 -0.045,-0.074 c -0.546,0.238 -1.032,-0.081 -1.251,-0.442 -0.332,-0.545 -0.107,-1.246 0.619,-1.688 0.777,-0.473 1.631,-0.36 2.013,0.268 0.115,0.19 0.225,0.472 -0.011,0.615 l -0.287,0.175 c -0.323,0.197 -0.485,0.194 -0.616,-0.024 l -0.062,-0.101 -0.079,0.047 0.654,1.074 0.078,-0.049 c -0.157,-0.259 -0.075,-0.404 0.156,-0.545 l 0.712,-0.433 z"
         id="path438"
         style="fill:#002b5c;fill-opacity:1;fill-rule:nonzero;stroke:none" /><path
         d="m 1168.422,671.74236 0.862,-0.25 c 0.359,-0.104 0.499,-0.047 0.572,0.207 l 0.089,-0.025 -0.31,-1.076 -0.089,0.025 c 0.066,0.229 0.02,0.36 -0.376,0.474 l -1.856,0.536 c -0.353,0.102 -0.493,0.064 -0.57,-0.201 l -0.088,0.025 0.31,1.076 0.089,-0.025 c -0.068,-0.234 -0.01,-0.369 0.374,-0.48 l 0.848,-0.244 0.467,1.622 -0.847,0.244 c -0.365,0.105 -0.496,0.058 -0.569,-0.196 l -0.089,0.025 0.308,1.066 0.088,-0.026 c -0.073,-0.254 0.023,-0.372 0.376,-0.474 l 1.856,-0.535 c 0.353,-0.102 0.497,-0.054 0.57,0.201 l 0.089,-0.024 -0.308,-1.066 -0.089,0.024 c 0.068,0.235 0.019,0.356 -0.376,0.468 l -0.863,0.251 -0.468,-1.622 z"
         id="path442"
         style="fill:#002b5c;fill-opacity:1;fill-rule:nonzero;stroke:none" /><path
         d="m 1130.9663,677.64646 c -10e-4,-0.151 -0.124,-0.272 -0.275,-0.271 -0.15,0 -0.272,0.123 -0.271,0.275 10e-4,0.151 0.124,0.271 0.274,0.27 0.152,-0.001 0.273,-0.123 0.272,-0.274"
         id="path446"
         style="fill:#002b5c;fill-opacity:1;fill-rule:nonzero;stroke:none" /><path
         d="m 1169.7284,677.64106 c 0,-0.151 -0.124,-0.272 -0.275,-0.271 -0.152,0.001 -0.273,0.123 -0.272,0.275 10e-4,0.15 0.124,0.272 0.275,0.271 0.15,-0.002 0.272,-0.123 0.272,-0.275"
         id="path450"
         style="fill:#002b5c;fill-opacity:1;fill-rule:nonzero;stroke:none" /><path
         d="m 1158.0225,663.57276 c 0.218,0.112 0.418,0.265 0.628,0.396 0.178,0.108 0.357,0.217 0.535,0.326 0.161,0.12 0.307,0.256 0.472,0.37 0.172,0.124 0.343,0.248 0.515,0.374 0.037,0.034 0.071,0.069 0.107,0.104 0.041,0.021 0.081,0.044 0.121,0.067 0.147,0.112 0.295,0.244 0.432,0.372 0.11,0.101 0.193,0.217 0.307,0.32 0.114,0.104 0.242,0.198 0.359,0.302 0.049,0.045 0.075,0.094 0.119,0.138 0.095,0.092 0.193,0.18 0.279,0.28 0.059,0.074 0.12,0.146 0.181,0.219 0.213,0.206 0.407,0.432 0.586,0.661 0.146,0.174 0.29,0.349 0.436,0.522 0.096,0.133 0.192,0.27 0.287,0.405 0.049,0.053 0.1,0.106 0.152,0.161 0.154,0.217 0.31,0.435 0.467,0.653 0.046,0.075 0.073,0.152 0.116,0.228 0.035,0.05 0.069,0.101 0.104,0.149 0.03,0.064 0.058,0.126 0.088,0.19 0.106,0.181 0.206,0.361 0.304,0.544 0.082,0.14 0.165,0.281 0.246,0.421 0.069,0.143 0.112,0.292 0.175,0.436 0.072,0.149 0.142,0.299 0.214,0.449 0.239,0.646 0.476,1.293 0.668,1.96 0.014,0.079 0.027,0.16 0.042,0.238 0.052,0.244 0.118,0.497 0.167,0.745 0.015,0.129 0.029,0.257 0.044,0.386 0.035,0.209 0.078,0.433 0.106,0.646 0.014,0.17 0.027,0.342 0.04,0.514 0.013,0.066 0.025,0.133 0.04,0.2 0.01,0.144 0.015,0.287 0.023,0.43 0.01,0.072 0.029,0.138 0.034,0.214 -10e-4,0.101 0,0.201 -0.01,0.301 0.045,0.646 0.056,1.35 0.021,1.991 -0.019,0.335 -0.097,0.664 -0.131,0.989 -0.038,0.346 -0.064,0.688 -0.133,1.016 -0.191,0.905 -0.442,1.795 -0.762,2.639 -0.045,0.12 -0.115,0.232 -0.166,0.351 -0.103,0.252 -0.22,0.484 -0.342,0.725 -0.039,0.068 -0.079,0.136 -0.119,0.204 -0.099,0.211 -0.167,0.436 -0.278,0.641 -0.068,0.125 -0.149,0.232 -0.228,0.353 -0.062,0.131 -0.123,0.261 -0.185,0.392 -0.229,0.356 -0.466,0.705 -0.705,1.054 -0.09,0.105 -0.179,0.209 -0.271,0.313 -0.1,0.13 -0.199,0.26 -0.299,0.39 -0.096,0.096 -0.202,0.176 -0.287,0.283 -0.048,0.062 -0.077,0.128 -0.129,0.19 -0.074,0.081 -0.149,0.164 -0.224,0.246 -0.045,0.041 -0.09,0.082 -0.135,0.124 -0.115,0.129 -0.221,0.262 -0.339,0.39 -0.104,0.097 -0.207,0.195 -0.309,0.291 -0.101,0.1 -0.199,0.201 -0.3,0.302 -0.137,0.106 -0.275,0.214 -0.414,0.32 -0.141,0.125 -0.284,0.248 -0.426,0.372 -0.094,0.072 -0.196,0.121 -0.293,0.184 -0.12,0.089 -0.243,0.177 -0.366,0.266 -0.092,0.065 -0.17,0.136 -0.259,0.209 -0.066,0.04 -0.132,0.081 -0.197,0.121 -0.09,0.062 -0.178,0.126 -0.267,0.188 -0.293,0.18 -0.606,0.316 -0.91,0.472 -0.11,0.07 -0.221,0.139 -0.331,0.209 -0.191,0.096 -0.381,0.193 -0.572,0.289 -0.156,0.075 -0.319,0.128 -0.479,0.192 -0.078,0.043 -0.157,0.086 -0.234,0.129 -0.061,0.022 -0.123,0.043 -0.182,0.064 -0.096,0.043 -0.192,0.086 -0.288,0.129 -0.301,0.109 -0.615,0.188 -0.927,0.282 -0.146,0.046 -0.299,0.105 -0.447,0.148 -0.325,0.095 -0.647,0.145 -0.983,0.22 -0.215,0.049 -0.441,0.112 -0.66,0.148 -0.143,0.021 -0.286,0.039 -0.427,0.059 -0.237,0.048 -0.5,0.091 -0.748,0.121 -0.094,0.002 -0.189,0.005 -0.285,0.008 -0.066,0.009 -0.133,0.018 -0.2,0.026 -0.129,0.002 -0.257,0.005 -0.387,0.007 -0.29,0.02 -0.597,0.044 -0.902,0.046 -0.118,-0.035 -0.284,-0.014 -0.415,-0.012 -0.158,0 -0.315,-0.002 -0.473,-0.002 -0.043,-0.008 -0.086,-0.014 -0.129,-0.021 -0.11,-0.002 -0.219,-0.006 -0.329,-0.008 -0.058,-0.014 -0.115,-0.028 -0.174,-0.042 -0.056,-0.007 -0.114,-0.013 -0.17,-0.022 -0.055,0 -0.111,0.006 -0.158,-0.012 -0.033,-0.005 -0.067,-0.01 -0.1,-0.014 -0.07,0 -0.145,0.002 -0.201,-0.028 -0.153,10e-4 -0.382,-0.019 -0.501,-0.083 -0.033,-0.003 -0.067,-0.008 -0.1,-0.013 -0.098,0 -0.227,-0.012 -0.302,-0.056 -0.252,10e-4 -0.462,-0.106 -0.691,-0.16 -0.122,-0.029 -0.267,-0.043 -0.372,-0.106 -0.099,0 -0.207,-0.024 -0.285,-0.07 -0.16,0 -0.299,-0.091 -0.435,-0.144 -0.081,-0.031 -0.181,-0.033 -0.253,-0.081 -0.16,0 -0.301,-0.092 -0.433,-0.151 -0.09,-0.039 -0.182,-0.077 -0.273,-0.115 -0.492,-0.207 -0.972,-0.443 -1.445,-0.688 -0.079,-0.051 -0.16,-0.103 -0.239,-0.153 -0.567,-0.287 -1.126,-0.602 -1.627,-1.01 -0.149,-0.106 -0.296,-0.211 -0.444,-0.316 -0.077,-0.07 -0.155,-0.14 -0.232,-0.209 -0.144,-0.106 -0.295,-0.196 -0.433,-0.313 -0.285,-0.242 -0.553,-0.511 -0.818,-0.773 -0.161,-0.146 -0.325,-0.294 -0.488,-0.442 -0.056,-0.064 -0.111,-0.127 -0.166,-0.191 -0.074,-0.07 -0.148,-0.139 -0.222,-0.208 -0.117,-0.118 -0.198,-0.262 -0.311,-0.378 -0.098,-0.099 -0.196,-0.192 -0.284,-0.301 -0.041,-0.056 -0.082,-0.111 -0.122,-0.166 -0.172,-0.193 -0.338,-0.382 -0.486,-0.589 -0.101,-0.157 -0.202,-0.315 -0.303,-0.473 -0.146,-0.188 -0.31,-0.431 -0.423,-0.636 -0.034,-0.067 -0.067,-0.134 -0.1,-0.201 -0.098,-0.164 -0.196,-0.327 -0.295,-0.49 -0.085,-0.171 -0.143,-0.352 -0.229,-0.523 -0.04,-0.066 -0.079,-0.132 -0.118,-0.197 -0.083,-0.155 -0.153,-0.308 -0.241,-0.461 -0.04,-0.099 -0.082,-0.197 -0.122,-0.297 -0.05,-0.101 -0.098,-0.203 -0.147,-0.305 -0.039,-0.116 -0.079,-0.233 -0.119,-0.351 -0.048,-0.125 -0.096,-0.251 -0.145,-0.377 -0.243,-0.785 -0.445,-1.572 -0.613,-2.403 -0.014,-0.157 -0.028,-0.312 -0.042,-0.47 -0.021,-0.181 -0.084,-0.378 -0.099,-0.558 -0.011,-0.14 -0.01,-0.299 -0.045,-0.429 -0.011,-0.112 -0.022,-0.221 -0.031,-0.329 -0.025,-0.673 -0.01,-1.312 0.01,-1.963 0.01,-0.313 0.071,-0.626 0.097,-0.932 0.01,-0.133 0.015,-0.266 0.02,-0.4 0.044,-0.419 0.115,-0.844 0.18,-1.262 0.031,-0.105 0.06,-0.211 0.089,-0.317 0.071,-0.328 0.144,-0.646 0.239,-0.962 0.028,-0.071 0.056,-0.142 0.083,-0.215 0.017,-0.074 0.037,-0.149 0.054,-0.224 0.124,-0.349 0.248,-0.698 0.371,-1.045 0.062,-0.13 0.124,-0.264 0.184,-0.394 0.036,-0.087 0.053,-0.184 0.09,-0.269 0.095,-0.223 0.234,-0.423 0.346,-0.638 0.09,-0.175 0.195,-0.342 0.284,-0.519 0.025,-0.062 0.051,-0.125 0.076,-0.189 0.031,-0.038 0.061,-0.075 0.093,-0.112 0.033,-0.074 0.066,-0.147 0.101,-0.221 0.083,-0.146 0.184,-0.287 0.29,-0.422 0.063,-0.081 0.114,-0.17 0.178,-0.251 0.087,-0.108 0.184,-0.208 0.264,-0.32 0.062,-0.092 0.124,-0.183 0.187,-0.274 0.117,-0.141 0.234,-0.281 0.352,-0.42 0.097,-0.121 0.194,-0.245 0.291,-0.368 0.121,-0.127 0.243,-0.253 0.364,-0.38 0.1,-0.116 0.186,-0.253 0.3,-0.358 0.164,-0.15 0.325,-0.302 0.476,-0.455 0.081,-0.082 0.162,-0.164 0.241,-0.245 0.134,-0.114 0.287,-0.198 0.415,-0.318 0.123,-0.119 0.247,-0.239 0.371,-0.358 0.09,-0.069 0.18,-0.138 0.269,-0.206 0.111,-0.095 0.206,-0.205 0.325,-0.289 0.144,-0.099 0.279,-0.212 0.429,-0.299 0.1,-0.058 0.206,-0.088 0.301,-0.151 0.112,-0.079 0.223,-0.157 0.335,-0.237 0.109,-0.071 0.234,-0.127 0.347,-0.195 0.422,-0.26 0.848,-0.483 1.292,-0.695 0.195,-0.094 0.379,-0.214 0.588,-0.285 0.192,-0.075 0.383,-0.149 0.575,-0.224 0.069,-0.019 0.139,-0.039 0.209,-0.058 0.188,-0.072 0.375,-0.144 0.563,-0.218 0.051,-0.014 0.101,-0.029 0.152,-0.044 0.161,-0.064 0.322,-0.139 0.491,-0.184 0.205,-0.04 0.409,-0.079 0.612,-0.119 0.305,-0.064 0.623,-0.158 0.933,-0.205 0.114,-0.01 0.228,-0.021 0.342,-0.028 0.151,-0.018 0.302,-0.055 0.459,-0.069 0.119,-0.006 0.237,-0.016 0.356,-0.024 0.077,-0.011 0.154,-0.022 0.23,-0.034 0.081,-0.003 0.163,-0.006 0.244,-0.009 0.186,-0.028 0.371,-0.056 0.558,-0.084 0.096,-0.005 0.191,-0.009 0.287,-0.012 0.056,0.006 0.114,0.013 0.172,0.019 0.17,-0.001 0.373,-0.019 0.544,-0.028 0.108,-0.002 0.21,0.006 0.314,0 0.215,-0.012 0.418,0.031 0.618,0.061 0.09,0.004 0.18,0.005 0.27,0.01 0.122,0.015 0.253,0.035 0.373,0.045 0.444,0.04 0.874,0.091 1.303,0.175 0.145,0.039 0.289,0.075 0.433,0.114 0.18,0.036 0.361,0.074 0.541,0.112 0.095,0.026 0.177,0.072 0.267,0.108 0.147,0.043 0.294,0.088 0.44,0.131 0.064,0.023 0.126,0.044 0.189,0.068 0.106,0.028 0.204,0.04 0.309,0.072 0.217,0.075 0.434,0.152 0.651,0.229 0.129,0.062 0.258,0.121 0.387,0.183 0.126,0.047 0.252,0.105 0.371,0.162 0.035,0.02 0.069,0.042 0.103,0.062 0.131,0.062 0.267,0.123 0.394,0.189 0.147,0.084 0.295,0.167 0.442,0.251 0.075,0.039 0.16,0.062 0.235,0.1"
         id="path454"
         style="fill:#002b5c;fill-opacity:1;fill-rule:nonzero;stroke:none" /><path
         d="m 1149.9032,662.90626 -0.014,0 0,0.016 c -0.023,0 -0.034,0.026 -0.046,0.042 -0.055,0.087 -0.111,0.177 -0.166,0.266 -0.116,0.134 -0.233,0.27 -0.348,0.407 -0.348,0.33 -0.755,0.612 -1.181,0.797 -0.088,0.031 -0.177,0.065 -0.266,0.097 -0.097,0.042 -0.188,0.098 -0.29,0.136 -0.096,0.035 -0.198,0.046 -0.299,0.066 -0.103,0.019 -0.209,0.048 -0.315,0.071 -0.219,0.044 -0.439,0.109 -0.66,0.151 -0.214,0.025 -0.428,0.051 -0.644,0.08 -0.17,0.009 -0.335,0.006 -0.5,0.02 -0.775,0.08 -1.543,0.155 -2.293,0.276 -0.255,0.044 -0.504,0.044 -0.755,0.087 -0.248,0.045 -0.498,0.117 -0.734,0.192 -0.131,0.041 -0.265,0.073 -0.393,0.12 -0.125,0.056 -0.248,0.113 -0.373,0.168 -0.086,0.04 -0.172,0.079 -0.258,0.116 -0.059,0.038 -0.12,0.077 -0.18,0.117 -0.029,0.014 -0.058,0.031 -0.086,0.046 -0.206,0.165 -0.366,0.391 -0.524,0.591 -0.121,0.155 -0.185,0.334 -0.242,0.521 -0.027,0.092 -0.056,0.185 -0.085,0.276 -0.091,0.429 -0.081,0.877 -0.086,1.346 -0.01,0.089 -0.015,0.18 -0.023,0.272 0.012,0.348 0.034,0.701 0.041,1.045 0,0.076 0,0.153 -0.01,0.23 0,0.347 0.01,0.695 0.01,1.045 0,0.228 0.02,0.454 0.017,0.672 -0.01,0.939 0.01,1.889 0.029,2.836 -0.01,0.134 -0.015,0.267 -0.023,0.401 0,0.148 0.015,0.289 0.015,0.429 0,0.067 0,0.134 -0.01,0.201 0.017,0.214 0.035,0.429 0.053,0.644 0,0.167 -0.011,0.329 -0.011,0.487 10e-4,0.118 0.019,0.236 0.014,0.357 0,0.099 -0.028,0.192 -0.025,0.302 0,0.089 0.011,0.181 0.015,0.272 0,0.182 -0.014,0.381 -0.011,0.573 0,0.11 0.019,0.227 0.016,0.344 0,0.127 -0.028,0.253 -0.025,0.386 0.015,0.157 0.03,0.316 0.044,0.473 0,0.153 -0.01,0.301 -0.01,0.444 0,0.321 0.016,0.667 0.018,1.002 0,0.068 0,0.134 0.01,0.199 -0.01,0.145 -0.015,0.288 -0.022,0.432 0.011,0.122 0.022,0.248 0.035,0.372 0.012,0.595 0.01,1.209 0.023,1.79 0,0.2 0,0.401 10e-4,0.601 0,0.141 -0.026,0.279 -0.023,0.43 0.01,0.095 0.011,0.191 0.017,0.286 0,0.503 -0.01,1.006 -0.01,1.519 10e-4,0.185 0.017,0.352 0.015,0.53 0,0.2 -0.01,0.418 -0.01,0.63 0,0.137 0.015,0.271 0.016,0.414 10e-4,0.115 -0.021,0.275 0.016,0.372 10e-4,0.03 0.034,0.025 0.058,0.028 0.206,0.028 0.466,0.056 0.687,0.021 0.272,-0.042 0.546,0.003 0.831,0 0.253,-0.002 0.506,-0.002 0.759,-0.002 0.153,0.008 0.306,0.016 0.459,0.025 0.285,-10e-4 0.55,-0.019 0.829,-0.018 0.336,0.004 0.698,0.009 1.048,0.008 0.098,-0.006 0.199,-0.01 0.3,-0.015 0.141,0.008 0.286,0.015 0.43,0.023 0.118,-0.003 0.23,-0.028 0.358,-0.028 0.16,-10e-4 0.305,0.013 0.456,0.01 0.236,-0.005 0.489,-0.006 0.732,-0.02 0.114,-0.01 0.228,-0.017 0.343,-0.027 0.337,0.005 0.688,0.018 1.017,0.022 0.225,-0.006 0.45,-0.012 0.674,-0.019 0.19,0.002 0.378,0.039 0.572,0.038 0.136,-10e-4 0.286,-0.014 0.43,-0.014 0.13,10e-4 0.257,0.004 0.386,0.005 0.148,-0.012 0.296,-0.022 0.445,-0.035 0.114,0.005 0.23,0.01 0.344,0.016 0.224,-0.008 0.448,-0.016 0.672,-0.025 0.106,0.009 0.211,0.017 0.316,0.025 0.611,0.016 1.186,10e-4 1.804,0.006 0.135,0.009 0.268,0.018 0.401,0.025 0.276,0.007 0.567,-0.012 0.831,0.007 0.059,0.006 0.115,0.012 0.172,0.017 0.23,-0.023 0.499,0.002 0.745,-0.005 0.103,-10e-4 0.187,-0.026 0.285,-0.028 0.111,0.002 0.221,0.006 0.33,0.009 0.177,-0.007 0.381,-0.028 0.558,-0.025 0.125,10e-4 0.244,0.024 0.374,0.021 0.091,-0.008 0.181,-0.016 0.272,-0.024 0.127,-0.003 0.27,0.015 0.401,0.004 0.091,-0.014 0.18,-0.026 0.273,-0.039 0.074,0.003 0.152,0.005 0.229,0.01 0.081,-0.006 0.16,-0.01 0.244,-0.015 0.08,0.004 0.161,0.008 0.242,0.013 0.153,0.002 0.301,-0.015 0.444,-0.006 0.233,0.017 0.462,-0.017 0.702,-0.014 0.113,0.006 0.228,0.015 0.342,0.022 0.077,-0.004 0.153,-0.008 0.23,-0.012 0.073,0 0.163,0.008 0.223,-0.016 0,-0.003 0.011,-0.009 0.016,-0.012 0.051,-0.076 0.033,-0.216 0.031,-0.318 0,-0.327 -0.016,-0.643 0,-0.959 0.01,-0.199 0.01,-0.428 0.01,-0.63 0,-0.067 -0.01,-0.134 -0.011,-0.199 0,-0.145 0.011,-0.286 0.017,-0.43 -0.01,-0.144 -0.016,-0.287 -0.025,-0.431 0.011,-0.187 0.025,-0.373 0.036,-0.559 -0.01,-0.07 -0.017,-0.142 -0.025,-0.214 0,-0.126 0.02,-0.238 0.019,-0.358 -0.01,-0.125 -0.016,-0.248 -0.023,-0.372 -10e-4,-0.154 0,-0.306 -0.01,-0.458 -0.01,-0.115 -0.018,-0.23 -0.025,-0.344 0.014,-0.187 0.027,-0.373 0.038,-0.558 0,-0.068 -0.01,-0.135 -0.017,-0.202 -0.01,-0.154 -0.017,-0.31 -0.015,-0.458 0,-0.265 0.025,-0.56 0.028,-0.815 -0.01,-0.059 -0.014,-0.115 -0.019,-0.173 0,-0.119 0.01,-0.239 0.014,-0.356 -0.01,-0.138 -0.021,-0.295 -0.022,-0.447 0,-0.109 0.025,-0.206 0.022,-0.313 -0.01,-0.059 -0.014,-0.116 -0.023,-0.173 0,-0.076 0.01,-0.153 0.01,-0.229 -0.01,-0.287 -0.033,-0.565 -0.029,-0.86 0,-0.142 0.01,-0.285 0.014,-0.429 0.01,-0.057 0.014,-0.114 0.022,-0.171 0,-0.097 -0.01,-0.192 -0.014,-0.288 0,-0.062 0.01,-0.124 0.01,-0.186 -0.01,-0.103 -0.016,-0.209 -0.025,-0.315 0,-0.141 0.036,-0.292 0.03,-0.444 -0.016,-0.419 -0.038,-0.814 -0.041,-1.231 -10e-4,-0.169 0.025,-0.319 0.025,-0.487 -0.01,-0.091 -0.019,-0.182 -0.027,-0.272 0,-0.196 0,-0.392 -0.01,-0.586 -0.01,-0.107 -0.019,-0.212 -0.028,-0.316 0.01,-0.396 0.011,-0.793 0.016,-1.188 -10e-4,-0.276 -0.029,-0.57 -0.027,-0.846 0.01,-0.148 0.015,-0.296 0.021,-0.445 0,-0.058 -0.01,-0.114 -0.01,-0.172 -10e-4,-0.105 0,-0.208 0,-0.314 0,-0.256 0.01,-0.513 0.01,-0.759 0,-0.296 10e-4,-0.617 -0.01,-0.931 0,-0.087 -0.01,-0.171 -0.011,-0.257 0.01,-0.053 0.012,-0.105 0.019,-0.158 -0.01,-0.182 -0.018,-0.363 -0.026,-0.543 0,-0.154 0.019,-0.315 0.01,-0.473 -0.018,-0.097 -0.036,-0.192 -0.053,-0.289 -0.013,-0.103 -0.027,-0.207 -0.039,-0.311 -0.037,-0.179 -0.166,-0.434 -0.26,-0.586 -0.082,-0.13 -0.219,-0.202 -0.323,-0.306 -0.063,-0.061 -0.135,-0.103 -0.2,-0.157 -0.122,-0.105 -0.244,-0.216 -0.383,-0.289 -0.088,-0.034 -0.176,-0.066 -0.265,-0.099 -0.179,-0.074 -0.357,-0.154 -0.54,-0.223 -0.168,-0.063 -0.346,-0.111 -0.515,-0.173 -0.04,-0.014 -0.083,-0.031 -0.126,-0.045 -0.092,10e-4 -0.216,-0.04 -0.287,-0.083 -0.08,0 -0.165,-0.01 -0.23,-0.043 -0.121,10e-4 -0.207,-0.034 -0.306,-0.072 -0.031,-0.009 -0.063,-0.017 -0.094,-0.025 -0.05,0 -0.106,-0.007 -0.144,-0.029 -0.095,0.001 -0.317,-0.043 -0.388,-0.083 -0.084,0 -0.186,0.016 -0.257,-0.013 -0.05,0 -0.105,-0.007 -0.144,-0.029 -0.077,0.001 -0.168,0.01 -0.23,-0.025 -0.037,-0.007 -0.077,-0.011 -0.114,-0.015 -0.06,0 -0.124,-0.003 -0.171,-0.028 -0.054,0 -0.115,-0.007 -0.158,-0.028 -0.1,0.001 -0.25,0.018 -0.329,-0.028 -0.039,-0.004 -0.077,-0.008 -0.115,-0.011 -0.098,0.001 -0.218,0.035 -0.302,-0.015 -0.057,10e-4 -0.125,0.01 -0.172,-0.012 -0.029,-0.006 -0.057,-0.01 -0.085,-0.013 -0.093,0 -0.209,0.017 -0.287,-0.013 -0.038,-0.006 -0.076,-0.009 -0.115,-0.015 -0.028,-0.004 -0.057,-0.009 -0.085,-0.013 -0.029,-0.005 -0.058,-0.01 -0.085,-0.014 -0.045,-0.005 -0.087,-0.008 -0.131,-0.014 -0.059,10e-4 -0.125,-0.002 -0.172,-0.026 -0.038,-0.005 -0.076,-0.011 -0.115,-0.015 -0.064,0 -0.137,0.003 -0.186,-0.027 -0.061,0 -0.125,-0.001 -0.171,-0.028 -0.05,0 -0.107,-0.006 -0.144,-0.027 -0.045,0 -0.094,-0.009 -0.129,-0.029 -0.028,-0.004 -0.057,-0.009 -0.085,-0.015 -0.075,10e-4 -0.172,-0.02 -0.231,-0.054 -0.047,0 -0.093,-0.008 -0.13,-0.029 -0.149,0 -0.279,-0.067 -0.405,-0.117 -0.098,-0.036 -0.198,-0.072 -0.296,-0.108 -0.192,10e-4 -0.396,-0.177 -0.538,-0.294 -0.124,-0.102 -0.283,-0.152 -0.406,-0.268 -0.34,-0.314 -0.544,-0.737 -0.713,-1.148"
         id="path458"
         style="fill:#ffffff;fill-opacity:1;fill-rule:nonzero;stroke:none" /><path
         d="m 1151.5003,664.94136 c 0.088,0.037 0.176,0.073 0.264,0.112 0.175,0.051 0.358,0.085 0.542,0.124 0.343,0.074 0.678,0.163 1.022,0.237 0.085,0.004 0.168,0.011 0.253,0.017 0.134,0.024 0.264,0.058 0.404,0.07 0.181,0.006 0.362,0.012 0.544,0.018 0.218,0.016 0.44,0.063 0.66,0.078 0.196,0.014 0.393,0.021 0.585,0.046 0.174,0.028 0.346,0.056 0.518,0.085 0.057,0.004 0.114,0.008 0.17,0.013 0.267,0.043 0.524,0.107 0.778,0.166 0.088,0.021 0.171,0.031 0.255,0.054 0.244,0.073 0.483,0.169 0.721,0.244 0.2,0.066 0.393,0.127 0.581,0.212 0.162,0.075 0.299,0.179 0.451,0.274 0.27,0.169 0.566,0.35 0.734,0.637 0.075,0.126 0.144,0.314 0.167,0.464 0.01,0.071 0.011,0.142 0.016,0.215 0.051,0.309 0.044,0.648 0.04,0.971 0.01,0.114 0.01,0.231 0.015,0.345 0,0.061 -0.01,0.124 -0.011,0.186 0,0.124 0,0.247 -10e-4,0.372 -0.01,0.047 -0.013,0.096 -0.019,0.143 0,0.043 0.01,0.086 0.014,0.129 0,0.042 -0.01,0.086 -0.016,0.129 0,0.085 0.026,0.154 0.026,0.243 0,0.097 -0.024,0.166 -0.026,0.259 -10e-4,0.109 0.027,0.189 0.031,0.3 0.01,0.375 0,0.747 0.016,1.117 0,0.091 -0.01,0.181 -0.01,0.271 0,0.331 0,0.66 0,0.988 0.019,0.898 0.01,1.855 0.028,2.752 -0.01,0.094 -0.01,0.19 -0.017,0.285 0,0.029 -0.01,0.057 -0.011,0.086 0,0.07 0.02,0.151 0.018,0.229 -0.01,0.052 -0.013,0.105 -0.018,0.158 0,0.074 0.022,0.148 0.021,0.229 0,0.166 -0.041,0.305 -0.04,0.473 10e-4,0.114 0.017,0.211 0.024,0.314 -10e-4,0.053 0,0.106 0,0.158 0.01,0.052 0.015,0.106 0.023,0.159 -0.01,0.061 -0.014,0.123 -0.022,0.185 0.01,0.071 0.016,0.143 0.023,0.214 0,0.065 -0.022,0.119 -0.022,0.187 10e-4,0.391 0,0.783 0.01,1.173 10e-4,0.091 0.024,0.16 0.027,0.245 0,0.085 -0.024,0.149 -0.021,0.229 0.01,0.043 0.015,0.086 0.021,0.13 0.01,0.129 0.013,0.257 0.021,0.386 0,0.196 0,0.411 -0.013,0.616 -0.01,0.066 -0.016,0.133 -0.025,0.2 -10e-4,0.162 0.028,0.303 0.025,0.459 -0.01,0.119 -0.013,0.237 -0.02,0.357 0,0.923 -0.031,1.808 0,2.723 0,0.5 0.01,1 0.01,1.501 0.01,0.273 -0.011,0.569 -0.013,0.832 0,0.269 0,0.513 0,0.787 l -0.016,0 c 0,0.031 -0.134,0.013 -0.157,10e-4 -0.266,0.004 -0.534,0.008 -0.8,0.012 -0.174,0.015 -0.347,0.026 -0.531,0.025 -0.052,0 -0.115,0.005 -0.158,-0.014 -0.065,-0.006 -0.133,-0.014 -0.2,-0.02 -0.095,0.012 -0.192,0.024 -0.287,0.037 -0.335,10e-4 -0.669,0.003 -1.002,0.007 -0.093,0 -0.337,0.028 -0.401,10e-4 -0.172,0.002 -0.344,0.004 -0.515,0.005 -0.13,0.009 -0.317,0.065 -0.446,0.015 -0.036,-0.006 -0.076,-0.009 -0.113,-0.015 -0.124,0.002 -0.248,0.004 -0.373,0.006 -0.185,0.013 -0.365,0.043 -0.558,0.044 -0.143,-0.041 -0.349,0.027 -0.488,-0.026 -0.037,-0.005 -0.076,-0.01 -0.113,-0.015 -0.148,0 -0.296,0.003 -0.445,0.003 -0.071,0.001 -0.17,0.014 -0.229,-0.013 -0.045,0 -0.108,0.004 -0.144,-0.014 -0.123,0.002 -0.226,0.025 -0.344,0.03 -0.294,10e-4 -0.591,0.004 -0.886,0.006 -0.108,0 -0.267,0.024 -0.358,-0.012 -0.034,-0.005 -0.068,-0.01 -0.101,-0.014 -0.044,-0.005 -0.086,-0.008 -0.129,-0.014 -0.167,10e-4 -0.444,0.089 -0.587,0.032 -0.03,-0.004 -0.057,-0.009 -0.086,-0.014 -0.063,0 -0.138,0 -0.186,-0.028 -0.427,0.003 -0.854,0.006 -1.261,0.014 -0.108,0.003 -0.223,-0.002 -0.329,-0.002 -0.051,0.001 -0.127,0.021 -0.172,-0.002 -0.106,0.002 -0.21,0.004 -0.315,0.006 -0.146,0.009 -0.469,0.066 -0.602,0.013 -0.096,0.002 -0.191,0.004 -0.285,0.004 -0.064,0.005 -0.141,0.024 -0.202,0 -0.085,0 -0.199,0.015 -0.272,-0.014 -0.17,10e-4 -0.321,0.031 -0.501,0.032 -0.057,0 -0.124,0.007 -0.171,-0.013 -0.107,0 -0.255,0.024 -0.345,-0.013 -0.162,10e-4 -0.324,0.002 -0.487,0.003 -0.076,0 -0.181,0.015 -0.242,-0.012 -0.206,-0.002 -0.411,-0.002 -0.616,-0.004 -0.131,0.01 -0.382,0.058 -0.502,0.01 -0.129,0.001 -0.352,0.045 -0.458,0.003 -0.272,10e-4 -0.521,0.017 -0.789,0.034 -0.094,0.008 -0.239,0.04 -0.329,0 -0.053,0 -0.113,0.007 -0.157,-0.014 -0.103,0.002 -0.243,0.022 -0.33,-0.012 -0.089,0 -0.228,0.024 -0.301,-0.013 -0.339,0.003 -0.698,0.018 -1.059,0.021 -0.105,0.001 -0.256,0.023 -0.344,-0.013 -0.13,10e-4 -0.415,0.029 -0.516,-0.011 -0.076,0 -0.208,0.021 -0.258,-0.026 -0.081,-0.077 -0.036,-0.453 -0.034,-0.574 0,-0.095 -0.01,-0.19 -0.011,-0.287 0,-0.087 0.016,-0.177 0.01,-0.271 0,-0.134 0,-0.267 0,-0.402 -0.014,-0.364 -0.017,-0.714 -0.02,-1.088 0,-0.103 -0.025,-0.178 -0.028,-0.272 0,-0.099 0.017,-0.195 0.016,-0.286 -0.012,-0.091 -0.022,-0.182 -0.034,-0.272 0,-0.191 0.01,-0.382 0.014,-0.572 -0.013,-0.325 -0.028,-0.674 -0.025,-1.018 0,-0.134 0.011,-0.267 0.015,-0.4 0.01,-0.043 0.012,-0.086 0.017,-0.129 -0.012,-0.082 -0.02,-0.163 -0.032,-0.244 0.01,-0.583 -0.01,-1.141 -0.013,-1.733 0,-0.256 0.012,-0.494 0.01,-0.744 -0.01,-0.124 -0.018,-0.248 -0.028,-0.373 0,-0.186 0.01,-0.372 0.012,-0.559 0,-0.37 -0.019,-0.754 -0.014,-1.132 0,-0.133 0.011,-0.267 0.016,-0.4 -0.01,-0.172 -0.016,-0.344 -0.027,-0.515 0,-0.678 0.01,-1.381 0.015,-2.063 0,-0.169 -0.029,-0.312 -0.03,-0.487 -10e-4,-0.182 0,-0.363 0,-0.543 0,-0.083 0.01,-0.163 0.01,-0.244 -0.012,-0.617 -0.033,-1.209 -0.037,-1.834 0,-0.282 -0.032,-0.53 -0.033,-0.801 0,-0.119 0,-0.238 10e-4,-0.357 0,-0.048 0.013,-0.096 0.02,-0.144 -0.01,-0.048 -0.016,-0.096 -0.022,-0.143 -0.01,-0.138 -0.016,-0.285 -0.017,-0.415 -10e-4,-0.168 0,-0.354 0.01,-0.53 0,-0.081 0.026,-0.147 0.026,-0.23 -10e-4,-0.085 -0.026,-0.148 -0.026,-0.229 -10e-4,-0.098 0.025,-0.17 0.024,-0.273 0,-0.739 0,-1.453 0.34,-2.016 0.231,-0.384 0.657,-0.627 1.044,-0.793 0.268,-0.117 0.543,-0.249 0.834,-0.318 0.217,-0.052 0.43,-0.077 0.656,-0.117 0.172,-0.03 0.351,-0.075 0.532,-0.093 0.171,-0.014 0.342,-0.026 0.514,-0.039 0.368,-0.046 0.728,-0.111 1.103,-0.157 0.175,-0.008 0.352,-0.017 0.528,-0.025 0.076,-0.016 0.153,-0.032 0.23,-0.05 0.139,-0.003 0.278,-0.004 0.415,-0.008 0.148,-0.013 0.296,-0.027 0.443,-0.042 0.077,-0.003 0.152,-0.006 0.229,-0.008 0.068,-0.017 0.135,-0.032 0.202,-0.048 0.19,-0.03 0.366,-0.05 0.556,-0.086 0.059,-0.019 0.117,-0.039 0.177,-0.06 0.129,-0.037 0.247,-0.067 0.371,-0.117 0.18,-0.065 0.361,-0.131 0.541,-0.195 0.132,-0.066 0.262,-0.131 0.394,-0.198 0.068,-0.047 0.14,-0.094 0.209,-0.141 0.144,-0.083 0.286,-0.153 0.418,-0.261 0.162,-0.132 0.272,-0.293 0.415,-0.444 0.045,-0.052 0.069,-0.119 0.131,-0.154 0,-0.024 0.01,-0.015 0.03,-0.015 0,0.024 0.072,0.07 0.091,0.094 0.03,0.046 0.059,0.093 0.09,0.138 0.313,0.458 0.778,0.786 1.251,1.037 0.072,0.025 0.144,0.052 0.218,0.078"
         id="path462"
         style="fill:#002b5c;fill-opacity:1;fill-rule:nonzero;stroke:none" /><path
         d="m 1151.583,686.75676 0,-0.015 -0.043,0 c -10e-4,0.049 -10e-4,0.096 0,0.143 0.021,0.143 0.139,0.208 0.22,0.315 0.152,-0.132 -0.083,-0.346 -0.174,-0.443"
         id="path466"
         style="fill:#ffffff;fill-opacity:1;fill-rule:nonzero;stroke:none" /><path
         d="m 1152.3263,687.95086 c 0.06,0.064 0.094,0.143 0.147,0.214 0.044,0.045 0.09,0.089 0.136,0.134 0.103,-0.011 0.199,-0.026 0.314,-0.032 l 0,-0.043 c -0.152,0.001 -0.559,-0.503 -0.654,-0.631 -0.044,-0.061 -0.097,-0.179 -0.165,-0.215 -0.043,-0.021 -0.092,-0.004 -0.127,0.016 -0.097,0.062 -0.024,0.168 0,0.239 0.018,0.044 0.022,0.096 0.06,0.129 0.041,0.02 0.078,0.038 0.117,0.059 0.056,0.042 0.112,0.085 0.168,0.13"
         id="path470"
         style="fill:#ffffff;fill-opacity:1;fill-rule:nonzero;stroke:none" /><path
         d="m 1151.3545,687.60526 c 0.024,0.074 0.024,0.154 0.06,0.221 0.044,0.088 0.156,0.11 0.223,0.173 0.061,0.056 0.074,0.134 0.122,0.195 0.051,0.066 0.121,0.077 0.191,0.108 0.056,0 0.114,-0.001 0.171,-0.001 0,-0.072 -0.094,-0.144 -0.129,-0.201 -0.047,-0.078 -0.093,-0.16 -0.141,-0.236 -0.055,-0.074 -0.112,-0.15 -0.169,-0.225 -0.037,-0.06 -0.051,-0.125 -0.098,-0.179 -0.035,-0.027 -0.07,-0.055 -0.105,-0.082 -0.031,-0.035 -0.062,-0.071 -0.094,-0.104 -0.032,-0.03 -0.063,-0.06 -0.096,-0.09 -0.058,-0.071 -0.058,-0.175 -0.136,-0.235 -0.069,-0.054 -0.193,-0.091 -0.286,-0.059 l -0.03,0 c 10e-4,0.043 0.189,0.335 0.232,0.371 0.04,0.035 0.097,0.037 0.129,0.083 0.029,0.042 0.023,0.092 0.047,0.135 0.03,0.051 0.088,0.068 0.109,0.126"
         id="path474"
         style="fill:#ffffff;fill-opacity:1;fill-rule:nonzero;stroke:none" /><path
         d="m 1150.2688,687.80736 c 0.017,0.07 0.085,0.117 0.106,0.188 0.024,0.084 -0.01,0.154 0.053,0.222 0.06,0.069 0.429,0.012 0.548,0.076 0.077,-10e-4 0.152,-10e-4 0.228,-0.002 l 0,-0.029 c -0.021,0 -0.021,-0.011 -0.031,-0.025 -0.112,-0.158 -0.17,-0.34 -0.248,-0.514 -0.036,-0.063 -0.073,-0.125 -0.109,-0.19 -0.028,-0.068 -0.057,-0.137 -0.086,-0.206 -0.074,-0.139 -0.259,-0.375 -0.421,-0.406 l 0,0.016 c -0.024,0 -0.017,0.13 -0.02,0.156 -0.011,0.063 -0.036,0.116 -0.028,0.187 0.01,0.078 0.048,0.129 0.047,0.214 0,0.105 -0.065,0.207 -0.039,0.313"
         id="path478"
         style="fill:#ffffff;fill-opacity:1;fill-rule:nonzero;stroke:none" /><path
         d="m 1149.1306,688.28736 c 0.052,0.056 0.259,0.02 0.342,0.043 0.091,-0.03 0.32,-0.027 0.429,-0.031 0,-0.063 0.01,-0.124 0.01,-0.189 0.012,-0.046 0.023,-0.094 0.032,-0.141 -0.01,-0.051 -0.017,-0.105 -0.026,-0.157 0,-0.227 -0.034,-0.453 -0.045,-0.673 0.01,-0.138 0.015,-0.276 0.023,-0.416 l -0.014,0 0,0.014 c -0.182,0.002 -0.391,0.559 -0.465,0.686 -0.041,0.071 -0.104,0.116 -0.153,0.185 -0.102,0.142 -0.288,0.512 -0.13,0.679"
         id="path482"
         style="fill:#ffffff;fill-opacity:1;fill-rule:nonzero;stroke:none" /><path
         d="m 1147.972,688.17846 c 0,0.003 10e-4,0.005 10e-4,0.009 0.03,0.088 0.256,0.088 0.339,0.135 0.083,0 0.193,0.015 0.263,-0.019 0.203,-0.1 0.271,-0.397 0.353,-0.584 0.052,-0.122 0.124,-0.239 0.182,-0.36 0.039,-0.065 0.077,-0.128 0.114,-0.192 0.026,-0.065 0.035,-0.135 0.038,-0.21 10e-4,-0.054 0.01,-0.155 -0.04,-0.181 -0.041,-0.021 -0.102,-0.011 -0.141,0.005 -0.075,0.028 -1.105,1.306 -1.11,1.373 l 0,0.012 c 0,0.004 10e-4,0.008 10e-4,0.012"
         id="path486"
         style="fill:#ffffff;fill-opacity:1;fill-rule:nonzero;stroke:none" /><path
         d="m 1147.4093,688.31386 c 0.107,-0.018 0.171,-0.048 0.249,-0.126 0.112,-0.11 0.21,-0.241 0.301,-0.37 0.046,-0.064 0.073,-0.137 0.128,-0.202 0.072,-0.075 0.144,-0.151 0.215,-0.226 0.064,-0.083 0.127,-0.161 0.19,-0.242 0.023,-0.034 0.045,-0.068 0.068,-0.103 0.046,-0.041 0.093,-0.08 0.138,-0.12 0.096,-0.092 0.183,-0.207 0.233,-0.325 -0.022,10e-4 -0.022,-0.023 -0.028,-0.041 -0.078,0 -0.174,0.027 -0.229,0.072 -0.092,0.092 -0.184,0.188 -0.277,0.282 -0.059,0.058 -0.129,0.082 -0.178,0.149 -0.099,0.132 -0.173,0.289 -0.295,0.408 -0.069,0.068 -0.169,0.082 -0.24,0.149 0,0.002 0,0.004 -0.01,0.007 -0.074,0.076 -0.101,0.181 -0.165,0.265 -0.072,0.095 -0.177,0.161 -0.245,0.254 0,0.005 -0.01,0.013 -0.01,0.018 -10e-4,0.005 0,0.008 0,0.011 -0.013,0.081 0.102,0.114 0.154,0.14"
         id="path490"
         style="fill:#ffffff;fill-opacity:1;fill-rule:nonzero;stroke:none" /><path
         d="m 1150.6153,685.33156 c 0.041,-0.005 0.082,-0.011 0.122,-0.016 0.124,-0.044 0.231,-0.226 0.185,-0.357 -0.026,-0.07 -0.104,-0.132 -0.163,-0.177 -0.042,-0.033 -0.102,-0.082 -0.162,-0.076 -0.083,0.007 -0.047,0.184 -0.027,0.232 0.029,0.066 0.103,0.083 0.108,0.165 0.01,0.095 -0.063,0.138 -0.063,0.229"
         id="path494"
         style="fill:#ffffff;fill-opacity:1;fill-rule:nonzero;stroke:none" /><path
         d="m 1150.8163,685.91936 c -0.048,-0.03 -0.105,-0.109 -0.168,-0.101 -0.088,0.01 -0.124,0.126 -0.181,0.179 -0.064,0.06 -0.197,0.09 -0.178,0.207 0.01,0.047 0.048,0.072 0.089,0.087 l 0,0.014 c 0.095,-0.019 0.161,-0.068 0.248,-0.104 0.099,-0.042 0.201,-0.064 0.303,-0.105 0.022,-0.007 0.032,-0.032 0.023,-0.055 -0.019,-0.062 -0.086,-0.092 -0.136,-0.122"
         id="path498"
         style="fill:#ffffff;fill-opacity:1;fill-rule:nonzero;stroke:none" /><path
         d="m 1150.6302,684.14576 c -0.019,-0.105 -0.257,-0.148 -0.339,-0.097 -0.122,0.075 0.11,0.225 0.161,0.265 0.061,-0.016 0.193,-0.085 0.178,-0.168"
         id="path502"
         style="fill:#ffffff;fill-opacity:1;fill-rule:nonzero;stroke:none" /><path
         d="m 1150.0057,684.23626 c -0.04,-0.008 -0.062,0.029 -0.089,0.047 -0.032,0.021 -0.071,0.027 -0.1,0.059 -0.073,0.081 -0.051,0.167 -0.055,0.277 0,0.057 -0.014,0.126 0.01,0.178 0.018,0.047 0.063,0.068 0.1,0.094 0.046,-0.003 0.084,-0.006 0.12,-0.028 0.041,-0.025 0.331,-0.305 0.336,-0.336 0.019,-0.107 -0.232,-0.273 -0.319,-0.291"
         id="path506"
         style="fill:#ffffff;fill-opacity:1;fill-rule:nonzero;stroke:none" /><path
         d="m 1151.6891,685.15326 c 0,-0.104 -0.054,-0.216 -0.145,-0.257 -10e-4,-0.022 -0.051,0.008 -0.073,0.015 10e-4,0.103 0.135,0.18 0.205,0.242 l 0.013,0 z"
         id="path510"
         style="fill:#ffffff;fill-opacity:1;fill-rule:nonzero;stroke:none" /><path
         d="m 1151.4199,685.33796 c -0.036,-0.026 -0.069,-0.057 -0.117,-0.056 -0.051,10e-4 -0.071,0.033 -0.086,0.074 -0.012,0.037 -0.01,0.499 0.01,0.54 0.015,0.05 0.092,0.092 0.127,0.132 0.108,-0.034 0.103,-0.099 0.14,-0.195 0.067,-0.18 0.115,-0.359 -0.069,-0.495"
         id="path514"
         style="fill:#ffffff;fill-opacity:1;fill-rule:nonzero;stroke:none" /><path
         d="m 1151.2415,684.51056 c 0.013,0 0.01,-0.004 -10e-4,-0.015 0,-0.065 -0.185,-0.182 -0.243,-0.125 -0.082,0.079 0.019,0.161 0.072,0.212 0.076,-0.005 0.132,-0.009 0.172,-0.072"
         id="path518"
         style="fill:#ffffff;fill-opacity:1;fill-rule:nonzero;stroke:none" /><path
         d="m 1149.9315,686.02176 c 0.051,-0.005 0.1,-0.012 0.151,-0.017 0.089,-0.029 0.375,-0.259 0.344,-0.372 -0.027,-0.101 -0.121,-0.159 -0.194,-0.233 -0.076,-0.074 -0.167,-0.16 -0.276,-0.173 -0.107,-0.014 -0.26,0.464 -0.241,0.55 0.011,0.038 0.179,0.209 0.215,0.23 0,0.006 0,0.01 10e-4,0.015"
         id="path522"
         style="fill:#ffffff;fill-opacity:1;fill-rule:nonzero;stroke:none" /><path
         d="m 1149.598,684.86076 c -0.055,-0.049 -0.128,-0.132 -0.205,-0.137 -0.06,-0.004 -0.088,0.037 -0.127,0.071 -0.094,0.082 -0.162,0.251 -0.13,0.384 0.022,0.04 0.042,0.081 0.065,0.122 0.038,0.114 0.021,0.135 0.112,0.224 0.123,-0.058 0.477,-0.318 0.441,-0.486 -0.015,-0.07 -0.105,-0.134 -0.156,-0.178"
         id="path526"
         style="fill:#ffffff;fill-opacity:1;fill-rule:nonzero;stroke:none" /><path
         d="m 1149.6627,684.07536 -0.014,0 c 0,-0.025 -0.053,-0.009 -0.071,-0.005 -0.216,0.045 -0.448,0.102 -0.27,0.365 0.035,-0.004 0.064,-0.006 0.089,-0.026 0.051,-0.039 0.066,-0.094 0.102,-0.142 0.055,-0.07 0.138,-0.105 0.164,-0.192"
         id="path530"
         style="fill:#ffffff;fill-opacity:1;fill-rule:nonzero;stroke:none" /><path
         d="m 1148.6715,685.89936 c 0,0 0.104,0.126 0.143,0.143 l 0,0.015 c 0.18,-0.118 0.327,-0.326 0.14,-0.516 -0.037,-0.039 -0.097,-0.09 -0.147,-0.096 -0.168,-0.026 -0.097,0.18 -0.1,0.267 -10e-4,0.067 -0.02,0.128 -0.036,0.187"
         id="path534"
         style="fill:#ffffff;fill-opacity:1;fill-rule:nonzero;stroke:none" /><path
         d="m 1149.0017,686.17086 0,0.042 c 0.028,0.007 0.057,0.016 0.087,0.023 0.179,0.025 0.295,0.053 0.443,0.132 0.047,-0.013 0.12,-0.013 0.149,-0.059 0.081,-0.126 -0.297,-0.382 -0.407,-0.371 -0.123,0.014 -0.187,0.159 -0.272,0.233"
         id="path538"
         style="fill:#ffffff;fill-opacity:1;fill-rule:nonzero;stroke:none" /><path
         d="m 1148.7795,684.98236 c 0.027,-0.007 0.054,-0.016 0.081,-0.023 0.069,-0.042 0.319,-0.28 0.326,-0.355 0.01,-0.079 -0.203,-0.228 -0.27,-0.242 -0.057,-0.012 -0.073,0.046 -0.091,0.087 -0.066,0.164 -0.114,0.345 -0.046,0.533"
         id="path542"
         style="fill:#ffffff;fill-opacity:1;fill-rule:nonzero;stroke:none" /><path
         d="m 1148.4879,685.13316 c -0.14,-0.035 -0.11,0.235 -0.106,0.325 0.102,-0.035 0.311,-0.273 0.106,-0.325"
         id="path546"
         style="fill:#ffffff;fill-opacity:1;fill-rule:nonzero;stroke:none" /><path
         d="m 1150.2592,670.23846 c 0,0.04 0.311,0.493 0.357,0.548 0.023,0.029 0.058,0.051 0.091,0.065 l 0,0.015 c 0.071,-10e-4 0.143,-10e-4 0.215,-10e-4 -10e-4,-0.088 -0.341,-0.589 -0.429,-0.626 -0.062,-0.028 -0.147,-0.015 -0.22,-0.017 l 0,0.016 -0.014,0 z"
         id="path550"
         style="fill:#ffffff;fill-opacity:1;fill-rule:nonzero;stroke:none" /><path
         d="m 1148.0758,670.28136 c -0.08,-0.035 -0.201,-0.013 -0.295,-0.015 0,0.129 0.526,0.506 0.634,0.612 l 0.215,0 c 0,-0.106 -0.451,-0.554 -0.554,-0.597"
         id="path554"
         style="fill:#ffffff;fill-opacity:1;fill-rule:nonzero;stroke:none" /><path
         d="m 1151.9823,667.45456 c -0.091,-0.041 -0.216,0.039 -0.267,0.106 -0.055,0.073 -0.075,0.161 -0.103,0.248 -0.045,0.135 -0.09,0.278 -0.144,0.412 -0.036,0.09 -0.104,0.212 -0.091,0.319 0.01,0.067 0.072,0.094 0.118,0.129 0.041,-0.011 0.072,-0.023 0.096,-0.059 0.027,-0.042 0.036,-0.09 0.054,-0.138 0.044,-0.135 0.088,-0.265 0.127,-0.402 0.044,-0.156 0.111,-0.316 0.178,-0.461 0.01,-0.026 0.081,-0.134 0.032,-0.154"
         id="path558"
         style="fill:#ffffff;fill-opacity:1;fill-rule:nonzero;stroke:none" /><path
         d="m 1151.5019,670.88386 c 0.068,-0.097 0.478,-0.549 0.454,-0.634 -0.01,-0.022 -0.032,-0.025 -0.052,-0.029 -0.123,-0.002 -0.247,-0.003 -0.371,-0.004 -0.219,10e-4 -0.439,0.002 -0.657,0.003 l 0,0.015 -0.015,0 c 0,0.047 0.038,0.09 0.058,0.129 0.068,0.129 0.338,0.493 0.32,0.626 -0.01,0.044 -0.038,0.077 -0.078,0.091 -0.173,0.06 -0.38,0.009 -0.568,0.015 -0.1,0.005 -0.327,0.056 -0.415,0.016 -0.187,10e-4 -0.843,0.094 -0.92,-0.072 -0.019,-0.039 0.01,-0.086 0.024,-0.119 0.076,-0.152 0.194,-0.291 0.296,-0.427 0.055,-0.085 0.11,-0.17 0.165,-0.253 l 0,-0.014 c -0.014,-0.006 -0.029,-0.009 -0.043,-0.016 -0.402,0.004 -0.803,0.02 -1.202,0.022 l 0,0.029 c 0.012,0 0.586,0.691 0.648,0.77 0,0.018 0,0.018 -0.015,0.028 -0.07,0.009 -0.143,0.02 -0.214,0.028 -0.119,0.006 -0.238,0.012 -0.358,0.018 -0.342,0.007 -0.703,-0.012 -1.03,0.02 0,0.041 0.488,0.511 0.554,0.578 0.415,0.436 0.847,0.856 1.28,1.282 0.149,0.154 0.298,0.305 0.446,0.457 0.048,0.047 0.093,0.098 0.154,0.118 l 0,0.029 c 0.097,-0.048 0.181,-0.147 0.26,-0.227 0.129,-0.132 0.259,-0.267 0.386,-0.4 0.082,-0.076 0.164,-0.151 0.246,-0.229 0.368,-0.383 0.761,-0.745 1.136,-1.125 0.155,-0.156 0.356,-0.315 0.478,-0.496 -0.028,-0.004 -0.057,-0.009 -0.086,-0.013 -0.118,0 -0.238,10e-4 -0.358,0.002 -0.044,10e-4 -0.101,0.014 -0.143,0 -0.163,10e-4 -0.356,0.022 -0.488,-0.039 0,-0.062 0.074,-0.131 0.108,-0.179"
         id="path562"
         style="fill:#ffffff;fill-opacity:1;fill-rule:nonzero;stroke:none" /><path
         d="m 1147.4469,669.25926 c 0.057,0.1 1.161,0.015 1.346,0.014 0.285,-0.002 0.538,0.038 0.816,0.037 0.372,-0.002 0.767,-0.031 1.146,-0.031 0.192,-0.002 0.404,0.005 0.602,0.011 0.452,0.012 0.92,-0.01 1.36,-0.011 0,0.004 0,0.009 0,0.014 0.022,0 0.025,0.127 0.025,0.157 10e-4,0.286 0.01,0.585 0.01,0.888 10e-4,0.206 0,0.417 0.03,0.601 0.234,-0.123 0.206,-0.417 0.214,-0.674 0,-0.159 0.014,-0.344 0.01,-0.515 -0.01,-0.092 -0.017,-0.182 -0.026,-0.273 -0.01,-0.137 0.032,-0.29 -0.019,-0.416 l 0,-0.029 -0.015,0 c 0,0.029 -0.089,0.017 -0.114,0.017 -0.227,10e-4 -0.44,-0.012 -0.674,-0.009 -0.101,0 -0.243,0.021 -0.329,-0.014 -0.086,0 -0.199,0.017 -0.273,-0.013 -0.263,0.002 -0.512,0.003 -0.773,0.019 -0.115,0.01 -0.274,0.062 -0.386,0.017 -0.192,0 -0.381,0.014 -0.573,0.01 -0.042,-0.002 -0.094,0.01 -0.129,-0.006 -0.108,0 -0.348,0.041 -0.43,10e-4 -0.063,0 -0.134,0.007 -0.186,-0.014 -0.181,0.003 -0.364,0.004 -0.544,0.007 -0.108,0.006 -0.229,0.01 -0.344,0.014 l -0.115,0 c -0.043,-0.004 -0.085,-0.008 -0.129,-0.014 -0.212,0.002 -0.381,-0.049 -0.483,0.132 -0.01,0.018 -0.029,0.057 -0.016,0.08"
         id="path566"
         style="fill:#ffffff;fill-opacity:1;fill-rule:nonzero;stroke:none" /><path
         d="m 1152.9073,665.68286 c -0.042,-0.059 -0.171,-0.076 -0.24,-0.085 0,0.357 -0.018,0.74 -0.01,1.105 0.01,0.104 -0.015,0.226 0.01,0.325 0.01,0.035 0.025,0.05 0.048,0.074 0.074,-10e-4 0.144,0 0.201,-0.03 0.021,0 0.025,-0.153 0.02,-0.186 -0.01,-0.077 0.01,-0.156 0.01,-0.243 0,-0.13 -0.022,-0.244 -0.016,-0.372 0.01,-0.133 0.048,-0.487 -0.023,-0.588"
         id="path570"
         style="fill:#ffffff;fill-opacity:1;fill-rule:nonzero;stroke:none" /><path
         d="m 1157.2102,666.14536 c -0.047,0 -0.106,-0.006 -0.143,-0.029 -0.071,0.003 -0.216,-0.037 -0.272,-0.069 -0.131,0 -0.243,-0.054 -0.36,-0.077 -0.081,-0.015 -0.167,-0.031 -0.242,-0.044 -0.057,-0.007 -0.124,-0.005 -0.172,-0.031 -0.034,-0.005 -0.068,-0.01 -0.101,-0.015 -0.033,-0.004 -0.067,-0.009 -0.101,-0.013 -0.085,0.001 -0.192,0.013 -0.257,-0.027 -0.034,-0.005 -0.067,-0.01 -0.101,-0.014 -0.139,0 -0.308,0.022 -0.415,-0.042 -0.052,0 -0.114,0.006 -0.157,-0.012 -0.067,0 -0.116,0.015 -0.172,0.028 0,-0.028 -0.172,-0.053 -0.201,-0.07 -0.097,10e-4 -0.218,0.018 -0.301,-0.012 -0.033,-0.005 -0.066,-0.009 -0.099,-0.014 -0.096,0.001 -0.211,0.011 -0.289,-0.026 -0.062,10e-4 -0.134,-0.004 -0.185,-0.028 -0.093,0 -0.331,-0.025 -0.386,0.021 -0.093,0.073 -0.042,0.984 -0.038,1.154 0,0.088 -0.01,0.174 -0.01,0.261 0,0.088 0.027,0.394 -0.13,0.343 -0.088,0 -0.276,0.021 -0.342,-0.012 -0.094,10e-4 -0.345,-0.019 -0.4,0.033 -0.099,0.092 -0.153,0.432 -0.204,0.569 -0.078,0.2 -0.203,0.401 -0.23,0.62 0,0.024 -0.01,0.061 0.01,0.079 0.042,0.049 0.232,0.04 0.306,0.04 0.168,-0.002 0.936,-0.003 0.998,0.104 0.039,0.071 0.024,0.295 0.017,0.384 0,0.138 0.012,0.276 0.017,0.416 0.01,0.214 -0.041,0.462 0.023,0.659 0.488,-0.527 1.042,-1.01 1.544,-1.534 0.047,-0.059 0.092,-0.117 0.139,-0.175 0.127,-0.127 0.266,-0.239 0.395,-0.366 0.347,-0.341 0.669,-0.709 1.008,-1.051 0.261,-0.264 0.532,-0.522 0.793,-0.784 0.048,-0.048 0.132,-0.103 0.154,-0.169 0.019,-0.051 -0.065,-0.077 -0.091,-0.097"
         id="path574"
         style="fill:#ffffff;fill-opacity:1;fill-rule:nonzero;stroke:none" /><path
         d="m 1156.2646,679.74836 c 0.079,0.092 0.158,0.187 0.237,0.279 0.093,0.096 0.2,0.173 0.295,0.262 0.126,0.128 0.249,0.256 0.375,0.384 0.142,0.136 0.283,0.272 0.425,0.408 0.276,0.286 0.552,0.573 0.829,0.86 0.425,0.406 0.857,0.807 1.248,1.244 0.1,0.112 0.249,0.206 0.327,0.331 0.07,-0.096 0.02,-0.351 0.028,-0.487 0.018,-0.316 0,-0.658 0.01,-0.988 0.01,-0.166 0.014,-0.334 0.021,-0.5 -0.01,-0.172 -0.017,-0.345 -0.026,-0.516 0.01,-0.1 0.014,-0.202 0.022,-0.301 0,-0.049 0,-0.095 -0.01,-0.143 0.01,-0.058 0.011,-0.114 0.016,-0.173 -0.01,-0.048 -0.012,-0.094 -0.02,-0.142 -0.022,-0.265 -0.024,-0.53 -0.02,-0.803 0.013,-0.138 0.025,-0.276 0.038,-0.415 -0.01,-0.077 -0.017,-0.153 -0.026,-0.229 0,-0.172 0,-0.344 0,-0.516 0,-0.057 -0.01,-0.115 -0.01,-0.172 0,-0.109 0.029,-0.223 0.027,-0.328 0,-0.152 -0.04,-0.313 -0.038,-0.474 0.013,-0.196 0.026,-0.391 0.039,-0.587 -0.01,-0.12 -0.018,-0.239 -0.028,-0.357 0.01,-0.045 0.011,-0.087 0.017,-0.132 0,-0.128 -0.01,-0.258 -0.015,-0.383 0.01,-0.093 0.014,-0.183 0.019,-0.275 0,-0.069 -0.018,-0.135 -0.023,-0.199 -0.01,-0.138 -10e-4,-0.276 0.016,-0.403 0.025,-0.198 0.017,-0.456 0,-0.657 -0.01,-0.048 -0.015,-0.096 -0.022,-0.144 -0.01,-0.12 0.023,-0.227 0.022,-0.344 -0.01,-0.067 -0.018,-0.133 -0.026,-0.199 0,-0.071 0.01,-0.143 0.01,-0.215 0,-0.096 -0.01,-0.192 -0.014,-0.287 0,-0.09 0.055,-0.605 -0.031,-0.605 -0.054,10e-4 -0.511,0.499 -0.588,0.576 -0.57,0.578 -1.149,1.165 -1.716,1.738 -0.09,0.091 -0.167,0.198 -0.255,0.285 -0.082,0.078 -0.161,0.156 -0.244,0.232 -0.04,0.049 -0.083,0.098 -0.123,0.147 -0.549,0.54 -1.106,1.088 -1.655,1.626 -0.099,0.096 -0.812,0.811 -0.815,0.859 0,0.012 0.01,0.027 0.01,0.039 0.056,0.135 0.28,0.285 0.392,0.392 0.122,0.116 0.211,0.245 0.325,0.362 0.102,0.105 0.215,0.208 0.319,0.311 0.039,0.033 0.077,0.065 0.116,0.099 0.09,0.092 0.178,0.183 0.268,0.276 0.088,0.088 0.176,0.174 0.266,0.264"
         id="path578"
         style="fill:#ffffff;fill-opacity:1;fill-rule:nonzero;stroke:none" /><path
         d="m 1152.9718,687.72686 c 0.046,0.035 0.097,0.045 0.139,0.091 0.029,0.043 0.059,0.087 0.087,0.13 0.077,0.114 0.156,0.208 0.251,0.307 0.033,0.031 0.067,0.061 0.101,0.092 0.062,0.034 0.17,0.017 0.247,0.017 0.165,-0.002 0.325,0.007 0.473,0.022 0.073,0.008 0.14,0.004 0.201,0.03 0.11,-10e-4 0.219,-0.003 0.329,-0.005 0.123,-0.014 0.255,-0.044 0.387,-0.044 0.116,-0.002 0.216,0.041 0.329,0.038 0.039,-0.007 0.077,-0.012 0.115,-0.019 0.137,-0.015 0.311,-0.015 0.43,0.021 l 0,-0.013 0.015,0 c 0,-0.02 0,-0.015 -0.015,-0.015 0,-0.007 0,-0.015 -0.01,-0.023 -0.139,-0.185 -0.342,-0.325 -0.503,-0.482 -0.307,-0.3 -0.613,-0.601 -0.919,-0.902 -0.068,-0.071 -0.15,-0.124 -0.218,-0.195 -0.276,-0.282 -0.524,-0.587 -0.806,-0.856 -0.101,-0.099 -0.205,-0.198 -0.306,-0.296 -0.057,-0.049 -0.112,-0.098 -0.169,-0.146 -0.064,-0.076 -0.127,-0.15 -0.19,-0.225 -0.17,-0.181 -0.351,-0.356 -0.534,-0.526 -0.085,-0.101 -0.171,-0.201 -0.256,-0.302 -0.19,-0.184 -0.379,-0.367 -0.567,-0.551 -0.323,-0.316 -0.641,-0.641 -0.965,-0.955 -0.107,-0.102 -0.202,-0.228 -0.321,-0.308 l 0,-0.016 -0.014,0 0,0.016 -0.015,0 c 0,0.042 0.01,0.086 0.014,0.129 10e-4,0.099 -0.017,0.198 -0.01,0.301 0.012,0.052 0.025,0.105 0.035,0.157 0.01,0.099 -0.027,0.18 0.019,0.265 0.029,0.053 0.094,0.075 0.137,0.116 0.082,0.081 0.131,0.186 0.231,0.252 0.104,0.07 0.235,0.09 0.348,0.144 0.071,0.037 0.129,0.099 0.197,0.141 0.153,0.099 0.33,0.185 0.444,0.342 0.031,0.063 0.062,0.125 0.093,0.187 0.039,0.055 0.078,0.11 0.115,0.165 0.03,0.074 0.026,0.158 0.047,0.237 0.029,0.107 0.084,0.206 0.087,0.332 -0.013,0.11 -0.027,0.22 -0.041,0.329 -0.014,0.142 -0.094,0.27 -0.178,0.376 -0.037,0.046 -0.08,0.089 -0.102,0.143 -0.028,0 0,0.036 0.01,0.052 0.023,0.033 0.045,0.065 0.068,0.096 0.099,0.148 0.199,0.308 0.347,0.417 0.074,0.055 0.085,0.135 0.141,0.203 0.068,0.079 0.169,0.121 0.239,0.204 0.036,0.049 0.073,0.098 0.109,0.145 0.029,0.055 0.044,0.113 0.089,0.161 0.046,0.048 0.097,0.071 0.147,0.111 0.038,0.036 0.077,0.074 0.115,0.11"
         id="path582"
         style="fill:#ffffff;fill-opacity:1;fill-rule:nonzero;stroke:none" /><path
         d="m 1144.6737,688.35766 c 0.142,-0.002 0.317,-0.022 0.444,0.012 0.103,-0.02 0.218,-0.015 0.329,-0.017 0.088,-0.005 0.173,-0.011 0.259,-0.014 l 0.357,0 c 0.053,-0.01 0.106,-0.019 0.157,-0.029 0.109,0 0.239,0.073 0.345,0.037 0.126,-0.043 0.236,-0.186 0.332,-0.284 0.155,-0.152 0.308,-0.304 0.46,-0.455 0.101,-0.11 0.198,-0.236 0.302,-0.344 0.128,-0.132 0.268,-0.227 0.397,-0.362 0.077,-0.08 0.123,-0.169 0.198,-0.246 0.042,-0.034 0.086,-0.069 0.128,-0.101 0.084,-0.069 0.159,-0.161 0.206,-0.253 -0.046,0 -0.114,-0.099 -0.144,-0.13 -0.118,-0.124 -0.212,-0.25 -0.251,-0.415 -0.01,-0.066 -0.019,-0.132 -0.03,-0.197 -0.021,-0.106 -0.049,-0.21 -0.036,-0.329 0.019,-0.076 0.037,-0.153 0.056,-0.229 0.033,-0.079 0.066,-0.157 0.098,-0.235 0.041,-0.088 0.06,-0.18 0.119,-0.261 0.045,-0.059 0.12,-0.081 0.176,-0.123 0.056,-0.04 0.079,-0.109 0.135,-0.15 0.053,-0.026 0.107,-0.05 0.16,-0.074 0.074,-0.05 0.147,-0.1 0.22,-0.148 0.099,-0.062 0.218,-0.105 0.304,-0.187 0.056,-0.077 0.113,-0.155 0.169,-0.232 0.051,-0.063 0.134,-0.107 0.171,-0.181 0.024,-0.05 0.043,-0.121 0.046,-0.181 0,-0.056 -0.012,-0.119 0,-0.173 0.029,-0.126 0.081,-0.307 0.058,-0.442 -0.115,0 -0.355,0.29 -0.441,0.374 -0.178,0.167 -0.356,0.332 -0.534,0.499 -0.129,0.138 -0.259,0.276 -0.387,0.413 -0.256,0.267 -0.532,0.515 -0.785,0.778 -0.134,0.141 -0.272,0.28 -0.408,0.422 -0.056,0.065 -0.115,0.132 -0.173,0.2 -0.468,0.456 -0.931,0.912 -1.397,1.367 -0.123,0.135 -0.246,0.269 -0.371,0.402 -0.267,0.27 -0.514,0.538 -0.793,0.795 -0.138,0.128 -0.43,0.303 -0.479,0.482 0.198,-0.001 0.398,0.011 0.601,0.011"
         id="path586"
         style="fill:#ffffff;fill-opacity:1;fill-rule:nonzero;stroke:none" /><path
         d="m 1141.653,674.24366 c -0.208,-0.196 -0.379,-0.422 -0.585,-0.618 -0.301,-0.296 -0.603,-0.59 -0.904,-0.886 -0.1,-0.102 -0.245,-0.209 -0.32,-0.324 l -0.014,0 c -10e-4,-0.03 -0.033,0.051 -0.036,0.072 0,0.104 0,0.21 -0.01,0.314 0.01,0.316 0.013,0.631 0.02,0.946 10e-4,0.261 0.01,0.511 0,0.758 0,0.086 -0.01,0.173 -0.011,0.258 0.01,0.235 0.019,0.496 0.017,0.744 0,0.106 -0.01,0.212 -0.011,0.316 0,0.153 0.014,0.311 0.015,0.472 0,0.096 -0.01,0.192 -0.012,0.288 0,0.271 0,0.544 0.01,0.815 0,0.081 -0.01,0.163 -0.012,0.243 0.01,0.102 0.019,0.202 0.027,0.302 0.01,0.226 -0.015,0.44 -0.01,0.659 0.01,0.167 0.017,0.334 0.025,0.5 0,0.36 -0.021,0.716 -0.012,1.074 0.011,0.173 0.021,0.344 0.032,0.517 -0.01,0.09 -0.013,0.181 -0.02,0.271 0,0.366 0.01,0.738 0.01,1.088 0,0.077 -0.01,0.154 -0.012,0.23 0.01,0.09 0.012,0.182 0.017,0.271 0,0.107 -0.019,0.208 -0.012,0.317 0.01,0.062 0.016,0.123 0.023,0.185 0,0.17 -0.01,0.346 -0.01,0.516 0.146,-0.053 0.263,-0.216 0.376,-0.325 0.248,-0.241 0.494,-0.481 0.741,-0.722 0.085,-0.091 0.17,-0.182 0.255,-0.273 0.186,-0.175 0.372,-0.354 0.54,-0.547 0.057,-0.066 0.11,-0.133 0.176,-0.197 0.122,-0.116 0.253,-0.222 0.372,-0.345 0.051,-0.056 0.077,-0.115 0.133,-0.167 0.285,-0.272 0.588,-0.526 0.876,-0.8 0.276,-0.284 0.551,-0.568 0.825,-0.851 0.173,-0.166 1.273,-1.198 1.208,-1.357 -0.02,-0.03 -0.04,-0.061 -0.061,-0.091 -0.129,-0.22 -0.43,-0.469 -0.628,-0.648 -0.069,-0.06 -0.11,-0.143 -0.176,-0.211 -0.162,-0.165 -0.323,-0.321 -0.486,-0.486 -0.225,-0.223 -0.454,-0.445 -0.681,-0.667 -0.148,-0.151 -0.297,-0.303 -0.445,-0.454 -0.038,-0.045 -0.075,-0.088 -0.114,-0.131 -0.374,-0.349 -0.747,-0.708 -1.122,-1.056"
         id="path590"
         style="fill:#ffffff;fill-opacity:1;fill-rule:nonzero;stroke:none" /><path
         d="m 1147.7368,667.41526 c -0.124,0 -0.537,0.028 -0.61,-0.021 -0.028,-0.019 -0.03,-0.056 -0.032,-0.089 0,-0.382 -0.01,-0.764 -0.01,-1.146 10e-4,-0.166 0.021,-0.406 -0.013,-0.571 -0.01,-0.04 -0.031,-0.076 -0.063,-0.102 l 0,-0.015 c -0.117,0.002 -0.222,0.052 -0.33,0.069 -0.105,0.016 -0.214,-0.009 -0.314,-0.009 -0.076,0.012 -0.153,0.021 -0.23,0.03 -0.147,0.014 -0.296,0.028 -0.443,0.043 -0.058,0.006 -0.15,0.013 -0.2,-0.009 -0.342,0.002 -0.66,0.07 -0.988,0.102 -0.153,0.016 -0.301,0.014 -0.442,0.039 -0.12,0.021 -0.24,0.04 -0.359,0.06 -0.052,0.012 -0.106,0.023 -0.159,0.036 -0.075,0.003 -0.15,0.005 -0.227,0.011 -0.172,0.031 -0.345,0.062 -0.517,0.093 -0.132,0.018 -0.301,0.019 -0.413,0.077 l -0.016,0 0,0.029 c 0.022,0 0.01,-0.006 0.021,0.01 0.077,0.123 0.224,0.253 0.335,0.353 0.1,0.099 0.199,0.2 0.299,0.302 0.153,0.151 0.319,0.288 0.475,0.442 0.077,0.075 0.154,0.151 0.231,0.225 0.062,0.07 0.126,0.142 0.19,0.212 0.394,0.378 0.797,0.744 1.182,1.138 0.237,0.242 0.456,0.498 0.7,0.732 0.339,0.325 0.674,0.642 0.995,0.982 0.093,0.095 0.189,0.193 0.282,0.29 0.062,-0.086 0.025,-0.417 0.015,-0.53 -0.016,-0.182 -0.019,-0.365 -0.021,-0.559 0,-0.121 -0.016,-0.248 0.022,-0.353 0.037,-0.103 0.109,-0.192 0.17,-0.282 0.033,-0.053 0.052,-0.122 0.113,-0.155 0.087,-0.049 0.363,-0.06 0.477,-0.055 0.203,0.008 0.413,0.023 0.632,0.021 -10e-4,-0.139 -0.09,-0.31 -0.137,-0.433 -0.086,-0.218 -0.172,-0.434 -0.253,-0.654 -0.032,-0.082 -0.06,-0.192 -0.118,-0.26 -0.043,-0.047 -0.104,-0.016 -0.159,-0.038 -0.029,-0.006 -0.057,-0.009 -0.086,-0.015"
         id="path594"
         style="fill:#ffffff;fill-opacity:1;fill-rule:nonzero;stroke:none" /><path
         d="m 1148.7116,664.86636 c -0.149,0.015 -0.287,0.121 -0.419,0.176 -0.107,0.044 -0.228,0.064 -0.325,0.124 l -0.014,0 0,0.014 0.014,0 c 0,0.021 0,0.015 0.014,0.015 0.21,-0.003 1.2,-0.038 1.29,0.05 0.044,0.043 0.043,0.226 0.043,0.3 0,0.462 -0.051,1.083 0.374,1.319 0.061,0.035 0.127,0.043 0.194,0.067 0.117,0 0.408,-0.043 0.393,-0.201 0,-0.037 -0.047,-0.037 -0.08,-0.042 -0.281,-0.033 -0.336,-0.186 -0.452,-0.404 -0.094,-0.176 -0.079,-0.481 -0.084,-0.712 -0.01,-0.227 -0.016,-0.445 -0.018,-0.674 l -0.014,0 c 0,-0.026 -0.14,0 -0.173,-0.013 -0.077,0 -0.145,-0.022 -0.214,-0.025 -0.177,10e-4 -0.353,0.003 -0.529,0.006"
         id="path598"
         style="fill:#ffffff;fill-opacity:1;fill-rule:nonzero;stroke:none" /><path
         d="m 1150.3214,664.57196 c -0.05,-0.06 -0.101,-0.119 -0.151,-0.181 -0.124,-0.126 -0.254,-0.243 -0.334,-0.396 l -0.013,0 c -0.088,0.099 -0.178,0.196 -0.265,0.294 -0.087,0.076 -0.262,0.176 -0.363,0.226 l 0,0.015 -0.014,0 0,0.014 0.014,0 c 10e-4,0.024 0.023,0.015 0.043,0.018 0.052,0.012 0.105,0.023 0.159,0.033 0.168,0.006 0.334,0.012 0.501,0.014 0.01,0.031 0.015,0.059 0.023,0.088 0.01,0.073 0.013,0.144 0.019,0.215 -0.01,0.066 -0.015,0.134 -0.021,0.201 0,0.066 0.01,0.133 0.01,0.2 -10e-4,0.143 -0.019,0.298 -0.01,0.444 0.017,0.08 0.035,0.164 0.052,0.244 0.017,0.099 0.045,0.219 0.113,0.292 0.068,0.077 0.164,0.07 0.252,0.106 0.028,-0.013 0.061,-0.029 0.072,-0.062 0.03,-0.095 0.01,-0.222 0.01,-0.326 0,-0.246 0.01,-0.494 0.01,-0.744 0.01,-0.058 0.048,-0.109 0.072,-0.161 0.036,-0.081 0.07,-0.16 0.106,-0.24 0.013,0 0.015,0 0.01,-0.012 -0.063,-0.118 -0.192,-0.199 -0.289,-0.282"
         id="path602"
         style="fill:#ffffff;fill-opacity:1;fill-rule:nonzero;stroke:none" /><path
         d="m 1150.8834,664.96236 c -0.067,0.057 -0.115,0.187 -0.122,0.273 0.071,0 0.152,-0.005 0.216,0.013 0.165,0 0.328,-0.01 0.485,-0.016 l 0,-0.03 c -0.053,10e-4 -0.12,-0.041 -0.162,-0.061 -0.132,-0.059 -0.265,-0.118 -0.398,-0.177 0,-0.018 -0.01,-0.011 -0.019,-0.002"
         id="path606"
         style="fill:#ffffff;fill-opacity:1;fill-rule:nonzero;stroke:none" /><path
         d="m 1145.9289,676.72126 c 0,0.13 0.027,0.265 0.029,0.4 -0.01,0.149 -0.017,0.295 -0.026,0.444 0,0.245 0.026,0.48 0.031,0.716 -0.01,0.143 -0.015,0.288 -0.022,0.43 0,0.11 0.01,0.22 0.011,0.328 -0.01,0.11 -0.016,0.222 -0.023,0.331 0,0.179 0.053,0.334 0.057,0.516 -0.01,0.099 -0.015,0.2 -0.024,0.301 0,0.057 0.01,0.113 0.011,0.171 0.01,0.213 0.033,0.415 0.035,0.631 10e-4,0.145 -0.024,0.369 0.015,0.497 0.038,0.133 0.429,0.578 0.565,0.631 l 0,0.013 c 0.028,-0.11 0.012,-0.258 10e-4,-0.372 -0.015,-0.138 -0.024,-0.283 -0.019,-0.429 0.01,-0.095 0.016,-0.19 0.024,-0.287 10e-4,-0.181 0,-0.363 0,-0.543 -0.01,-0.084 -0.013,-0.163 -0.019,-0.245 0,-0.096 0.01,-0.191 0.011,-0.287 -0.01,-0.253 -0.02,-0.542 -0.012,-0.802 0.01,-0.283 -0.031,-0.581 -0.024,-0.858 0.01,-0.105 0.017,-0.21 0.024,-0.315 0,-0.215 0,-0.431 0,-0.646 -0.01,-0.099 -0.016,-0.2 -0.024,-0.3 0,-0.168 -10e-4,-0.334 -10e-4,-0.501 0,-0.201 0.025,-0.557 -0.031,-0.725 -0.019,-0.054 -0.085,-0.089 -0.116,-0.135 -0.046,-0.063 -0.093,-0.128 -0.14,-0.192 -0.046,-0.045 -0.093,-0.088 -0.138,-0.131 -0.047,-0.092 -0.095,-0.184 -0.143,-0.274 l -0.014,0 0,-0.014 -0.015,0 c 0,0.269 -0.039,0.56 -0.042,0.83 0,0.16 0.024,0.332 0.033,0.486 0.01,0.119 -0.025,0.219 -0.022,0.331"
         id="path610"
         style="fill:#ffffff;fill-opacity:1;fill-rule:nonzero;stroke:none" /><path
         d="m 1146.198,674.94586 c 0.071,0.169 0.129,0.221 0.266,0.338 0.075,0.067 0.14,0.149 0.224,0.203 0.365,0.238 0.941,0.236 1.395,0.142 0.087,-0.026 0.174,-0.049 0.26,-0.074 0.288,-0.056 0.549,-0.088 0.794,-0.232 0.16,-0.095 0.293,-0.226 0.44,-0.346 0.038,-0.026 0.077,-0.05 0.115,-0.073 0.067,-0.051 0.139,-0.162 0.233,-0.159 0.135,0 0.219,0.173 0.319,0.244 0.111,0.081 0.221,0.168 0.345,0.228 0.337,0.163 0.674,0.332 1.047,0.425 0.134,0.031 0.268,0.062 0.402,0.093 0.077,0.014 0.16,0.005 0.229,0.033 0.114,-0.002 0.228,-0.004 0.342,-0.007 0.19,-0.03 0.389,-0.123 0.537,-0.234 0.065,-0.075 0.13,-0.146 0.196,-0.22 0.105,-0.113 0.219,-0.233 0.238,-0.39 l -0.016,0 c 0,-0.027 -0.113,-0.014 -0.142,-0.014 -0.301,0.002 -0.601,0.003 -0.903,0.004 -0.109,0.002 -0.257,0.022 -0.344,-0.025 -0.099,0 -0.238,0.061 -0.329,0.016 -0.032,-0.005 -0.066,-0.011 -0.1,-0.013 -0.113,0 -0.251,0.017 -0.344,-0.028 -0.049,0 -0.105,-0.009 -0.143,-0.028 -0.097,0 -0.3,0.025 -0.373,-0.012 -0.043,-0.004 -0.085,-0.008 -0.129,-0.013 -0.042,-0.005 -0.086,-0.01 -0.128,-0.013 -0.068,0 -0.159,-0.01 -0.202,-0.056 -0.024,0 0,-0.078 0,-0.103 0.01,-0.253 -0.18,-0.483 -0.443,-0.48 -0.212,0 -0.378,0.152 -0.42,0.345 -0.013,0.066 0.01,0.16 -0.037,0.213 -0.018,0.022 -0.053,0.036 -0.084,0.029 -0.1,0.006 -0.2,0.011 -0.3,0.017 -0.024,-0.006 -0.048,-0.01 -0.073,-0.014 -0.234,0 -0.444,0.03 -0.687,0.031 -0.062,10e-4 -0.15,0.013 -0.2,-0.013 -0.172,10e-4 -0.337,0.017 -0.515,0.017 -0.085,10e-4 -0.192,0.009 -0.258,-0.027 -0.251,0.002 -0.509,0.022 -0.76,0.02 -0.089,0 -0.212,0.021 -0.287,-0.014 -0.076,10e-4 -0.152,10e-4 -0.213,0.03 0,0.06 0.032,0.111 0.052,0.16"
         id="path614"
         style="fill:#ffffff;fill-opacity:1;fill-rule:nonzero;stroke:none" /><path
         d="m 1153.7429,678.75276 -0.027,0 c -0.046,0.114 -0.029,0.224 -0.028,0.359 0,0.171 -0.037,0.344 0.046,0.488 0.045,-0.011 0.08,-0.023 0.1,-0.065 0.042,-0.098 0.036,-0.782 -0.091,-0.782 m -0.218,1.764 0,-0.015 c -0.112,0.023 -0.132,0.11 -0.07,0.201 0.059,-0.028 0.126,-0.186 0.07,-0.186 m -0.037,-2.093 c -0.01,-0.014 -0.091,-0.134 -0.09,-0.054 -0.02,0.042 -0.015,0.107 -0.015,0.157 0,0.131 -10e-4,0.28 -0.01,0.415 0,0.181 0,0.363 0,0.543 10e-4,0.148 -0.012,0.301 0.046,0.417 0.043,-0.022 0.076,-0.058 0.089,-0.104 0.042,-0.158 0.01,-0.339 0.01,-0.513 -10e-4,-0.237 0.06,-0.654 -0.03,-0.861 m 0.508,2.206 c -10e-4,0.135 -0.026,0.271 -0.036,0.4 0,0.072 -0.01,0.144 -0.012,0.216 0,0.028 0.01,0.156 -0.017,0.157 l 0,0.014 -0.043,0 c -0.03,-0.281 -0.014,-0.59 -0.021,-0.888 0,-0.116 -0.053,-0.201 -0.063,-0.3 10e-4,-0.058 0,-0.116 0,-0.171 -0.01,-0.053 -0.01,-0.106 -0.013,-0.159 -0.069,-0.009 -0.119,0.008 -0.134,0.075 -0.023,0.097 0.025,0.178 0.023,0.269 -0.01,0.062 -0.013,0.125 -0.02,0.189 0,0.339 0.027,0.697 0.024,1.029 -0.01,0.058 -0.012,0.115 -0.018,0.171 -0.01,0.029 -0.016,0.058 -0.022,0.088 l -0.045,0 0,-0.015 -0.014,0 c -0.01,-0.243 -0.036,-0.461 -0.048,-0.701 -0.01,-0.042 -0.019,-0.086 -0.028,-0.129 l -0.043,0 c -0.076,0.189 -0.052,0.437 -0.054,0.659 -10e-4,0.121 0.011,0.243 -0.026,0.345 -0.043,-0.078 -0.04,-0.158 -0.049,-0.258 -0.01,-0.114 -0.016,-0.251 -0.01,-0.372 0.01,-0.128 0.032,-0.27 0.021,-0.402 -0.072,-0.821 -0.033,-1.627 -0.039,-2.462 0,-0.168 -0.01,-0.334 -0.011,-0.501 -0.011,-0.142 -0.035,-0.297 -0.035,-0.446 0,-0.205 0.012,-0.426 0.01,-0.643 0,-0.204 -0.027,-0.433 -0.014,-0.645 10e-4,-0.028 0.01,-0.101 0.04,-0.101 l 0,-0.014 0.014,0 0,0.014 0.014,0 c 0.039,0.121 0.026,0.263 0.032,0.401 0.01,0.225 0.036,0.454 0.029,0.688 0,0.147 -0.034,0.329 0.016,0.469 0.01,0.022 0.026,0.032 0.053,0.022 0.056,-0.013 0.068,-0.099 0.076,-0.149 0.028,-0.174 0,-0.346 -0.014,-0.53 -10e-4,-0.142 0,-0.287 0,-0.43 -10e-4,-0.157 -0.011,-0.323 0.01,-0.473 0.01,-0.082 -0.01,-0.162 0.014,-0.238 0.015,-0.046 0.024,-0.149 0.089,-0.149 0.016,0.237 0.024,0.504 0.025,0.746 0,0.114 -0.011,0.229 -0.017,0.344 0.011,0.113 0.022,0.228 0.033,0.343 0.011,0.076 0.023,0.152 0.035,0.23 10e-4,0.106 -0.032,0.208 -0.045,0.301 -0.021,0.154 -0.018,0.32 -0.017,0.486 0,0.088 0,0.178 0.024,0.255 0.01,0.026 0.05,0.05 0.05,0.074 l 0.014,0 c 0.051,-0.044 0.082,-0.09 0.092,-0.159 0.025,-0.174 0.013,-0.393 0,-0.571 -0.01,-0.063 -0.026,-0.116 -0.026,-0.187 0,-0.157 0.043,-0.324 0.047,-0.487 0,-0.066 -0.01,-0.133 -0.01,-0.201 0,-0.29 0,-0.55 0,-0.845 -10e-4,-0.209 0.018,-0.434 0.039,-0.632 0,-0.038 -0.01,-0.074 -0.015,-0.113 l 0.058,0 c 0.057,0.124 0.04,0.277 0.045,0.43 0.01,0.162 0.031,0.347 0.012,0.515 -0.015,0.109 -0.032,0.219 -0.048,0.331 0,0.115 0.039,0.221 0.042,0.342 0,0.18 -0.026,0.34 -0.026,0.517 0.012,0.185 0.022,0.371 0.032,0.559 0,0.141 0,0.285 0,0.427 -0.01,0.058 -0.014,0.115 -0.021,0.173 0,0.091 0.024,0.165 0.026,0.257 0,0.149 -0.01,0.296 -0.011,0.445 0,0.227 0.016,0.453 0.017,0.688 0,0.242 0.02,0.469 0.017,0.702"
         id="path618"
         style="fill:#ffffff;fill-opacity:1;fill-rule:nonzero;stroke:none" /><path
         d="m 1152.4641,680.89836 c -0.054,-0.038 -0.135,-0.055 -0.198,-0.072 -0.162,-0.049 -0.324,-0.099 -0.486,-0.148 -0.222,-0.071 -0.45,-0.154 -0.658,-0.256 -0.146,-0.085 -0.292,-0.17 -0.439,-0.256 -0.024,-0.011 -0.226,-0.117 -0.225,-0.062 l -0.015,0 c 0.019,0.151 0.192,0.254 0.311,0.323 0.057,0.04 0.114,0.081 0.171,0.123 0.146,0.093 0.303,0.183 0.456,0.254 0.163,0.078 0.337,0.118 0.509,0.175 0.059,0.028 0.117,0.053 0.174,0.079 0.078,0.027 0.155,0.055 0.233,0.08 0.059,0 0.128,0.006 0.181,-0.012 0.112,-0.04 0.057,-0.176 -0.014,-0.228 m -0.023,-3.502 c -0.117,-0.071 -0.271,-0.07 -0.408,-0.1 -0.126,-0.027 -0.247,-0.064 -0.375,-0.094 -0.426,-0.097 -0.779,-0.268 -1.143,-0.486 -0.045,-0.026 -0.164,-0.141 -0.21,-0.056 -0.034,0.056 0.055,0.118 0.091,0.149 0.142,0.124 0.288,0.206 0.442,0.304 0.171,0.106 0.342,0.201 0.53,0.274 0.06,0.033 0.12,0.065 0.181,0.098 0.234,0.093 0.476,0.15 0.714,0.231 0.068,0 0.137,-10e-4 0.193,-0.029 0.115,-0.06 0.085,-0.232 -0.015,-0.291 m -2,1.168 c 0.345,0.32 0.793,0.477 1.213,0.649 0.133,0.054 0.289,0.151 0.447,0.15 0.052,0.041 0.172,0.101 0.243,0.1 l 0,0.014 c 0.084,-0.013 0.146,-0.049 0.148,-0.143 0,-0.082 -0.038,-0.147 -0.1,-0.19 -0.126,-0.083 -0.276,-0.096 -0.42,-0.147 -0.162,-0.053 -0.331,-0.115 -0.494,-0.164 -0.112,-0.034 -0.224,-0.059 -0.33,-0.101 -0.193,-0.078 -0.386,-0.178 -0.564,-0.286 -0.064,-0.038 -0.13,-0.098 -0.21,-0.1 -0.02,-10e-4 -0.041,0 -0.054,0.013 -0.069,0.07 0.081,0.168 0.121,0.205 m 2.657,0.538 c -0.01,0.085 -0.014,0.171 -0.023,0.256 0,0.36 0.016,0.728 0.018,1.074 0,0.109 -0.01,0.22 -0.01,0.331 0,0.272 10e-4,0.538 -0.014,0.802 -0.016,0.082 -0.029,0.163 -0.045,0.245 -0.015,0.094 0,0.202 0.01,0.299 0,0.032 0.01,0.128 -0.031,0.128 -0.069,0.034 -0.148,0.019 -0.228,0.022 -0.093,0.006 -0.185,0.025 -0.286,0.025 -0.108,-0.037 -0.241,-0.026 -0.356,-0.048 -0.531,-0.099 -1.027,-0.177 -1.485,-0.419 -0.112,-0.061 -0.234,-0.125 -0.32,-0.228 -0.065,-0.078 -0.067,-0.176 -0.082,-0.28 -0.038,-0.245 -0.037,-0.505 -0.046,-0.774 -0.01,-0.133 -0.019,-0.267 -0.028,-0.401 0,-0.195 0,-0.392 -0.01,-0.588 -0.01,-0.076 -0.016,-0.152 -0.026,-0.229 -0.017,-0.181 -0.012,-0.381 -0.019,-0.558 -0.01,-0.275 0.01,-0.553 0.012,-0.816 0.01,-0.252 -0.01,-0.525 -0.01,-0.788 0.01,-0.071 0.014,-0.142 0.019,-0.215 0,-0.043 -0.011,-0.086 -0.016,-0.129 0,-0.12 0.023,-0.24 0.022,-0.372 0,-0.353 -0.011,-0.805 0.129,-1.087 0.01,-0.013 0.052,-0.077 0.052,-0.045 0.158,0.061 0.299,0.184 0.447,0.266 0.132,0.071 0.275,0.114 0.407,0.183 0.16,0.086 0.243,0.147 0.452,0.143 0.06,0.039 0.235,0.072 0.315,0.071 0.034,0.005 0.068,0.009 0.1,0.014 0.03,0.005 0.058,0.007 0.086,0.014 0.152,0.075 0.506,0.005 0.66,-0.032 0.075,-0.019 0.152,-0.039 0.228,-0.058 0.037,0.22 0,0.472 -0.01,0.688 0.01,0.122 0.017,0.247 0.025,0.37 0,0.156 -0.011,0.313 -0.01,0.461 0.01,0.076 0.016,0.152 0.023,0.227 0.011,0.18 0,0.354 0.01,0.531 0.01,0.102 0.021,0.212 0.024,0.315 0,0.198 0.01,0.397 0,0.602"
         id="path622"
         style="fill:#ffffff;fill-opacity:1;fill-rule:nonzero;stroke:none" /><path
         d="m 1149.686,680.02266 c -0.016,-0.031 -0.069,-0.033 -0.099,-0.027 -0.086,0.017 -0.15,0.096 -0.221,0.139 -0.083,0.047 -0.167,0.093 -0.251,0.14 -0.445,0.225 -0.947,0.356 -1.432,0.49 -0.14,0.039 -0.322,0.031 -0.442,0.105 -0.099,0.063 -0.102,0.195 -0.015,0.269 0.209,-10e-4 0.377,-0.067 0.56,-0.122 0.056,-0.01 0.112,-0.022 0.166,-0.034 0.121,-0.032 0.236,-0.081 0.351,-0.128 0.101,-0.036 0.202,-0.071 0.304,-0.106 0.05,-0.028 0.099,-0.054 0.147,-0.08 0.139,-0.065 0.279,-0.131 0.418,-0.197 0.086,-0.04 0.567,-0.339 0.514,-0.449 m -0.056,-1.789 c -0.011,-0.005 -0.02,-0.008 -0.029,-0.011 -0.01,-10e-4 -0.011,-0.003 -0.016,-0.004 -0.1,-0.014 -0.504,0.317 -0.626,0.374 -0.144,0.069 -0.292,0.123 -0.441,0.181 -0.2,0.076 -0.394,0.165 -0.618,0.194 -0.085,0.011 -0.17,0.023 -0.258,0.034 -0.116,0.005 -0.298,-0.02 -0.385,0.048 -0.107,0.086 -0.037,0.314 0.103,0.314 l 0,0.013 c 0.633,-0.044 1.18,-0.334 1.694,-0.624 0.138,-0.078 0.496,-0.293 0.569,-0.438 0.01,-0.016 0.035,-0.082 0.01,-0.081 m -0.342,-1.569 c -0.245,0.115 -0.507,0.208 -0.77,0.291 -0.092,0.028 -0.187,0.04 -0.284,0.059 -0.138,0.029 -0.284,0.07 -0.43,0.092 -0.162,0.025 -0.328,0.033 -0.486,0.066 -0.017,0.008 -0.035,0.015 -0.053,0.021 -0.129,0.071 -0.131,0.323 0.056,0.321 l 0,0.015 c 0.116,0 0.202,-0.031 0.302,-0.051 0.103,-0.023 0.21,-0.033 0.311,-0.058 0.087,-0.032 0.173,-0.064 0.26,-0.094 0.255,-0.082 0.488,-0.168 0.727,-0.281 0.057,-0.021 0.113,-0.042 0.17,-0.062 0.136,-0.059 0.334,-0.205 0.433,-0.323 0.036,-0.042 0.097,-0.068 0.097,-0.132 -0.12,-0.015 -0.236,0.09 -0.333,0.136 m 0.519,4.346 c -0.02,0.211 0.01,0.435 -0.111,0.595 -0.224,0.303 -0.53,0.413 -0.857,0.534 -0.087,0.031 -0.174,0.062 -0.261,0.092 -0.099,0.019 -0.198,0.037 -0.298,0.057 -0.152,0.036 -0.326,0.068 -0.489,0.076 -0.23,0.003 -0.458,0.004 -0.687,0.008 -0.068,-0.032 -0.179,-0.021 -0.225,-0.088 -0.043,-0.068 -0.021,-0.328 -0.021,-0.427 0,-0.389 -0.019,-0.775 -0.022,-1.174 0,-0.235 0,-0.469 -0.01,-0.702 -0.013,-0.196 -0.026,-0.392 -0.039,-0.588 0,-0.14 0.051,-0.266 0.047,-0.415 -0.01,-0.288 -0.011,-0.603 -0.018,-0.902 -0.01,-0.125 -0.019,-0.249 -0.029,-0.373 0,-0.254 0.014,-0.492 0.01,-0.745 -0.01,-0.124 -0.019,-0.247 -0.028,-0.371 -10e-4,-0.12 0.036,-0.22 0.036,-0.33 -10e-4,-0.129 -0.026,-0.251 -0.027,-0.387 0.053,0 0.105,0 0.157,0 0.041,0.019 0.095,0.028 0.144,0.028 0.04,0.019 0.096,0.027 0.143,0.027 0.034,0.005 0.068,0.009 0.1,0.013 0.137,0.061 0.508,-0.015 0.647,-0.039 0.176,-0.029 0.34,-0.023 0.512,-0.059 0.202,-0.043 0.509,-0.16 0.684,-0.263 0.062,-0.036 0.414,-0.309 0.445,-0.309 l 0,0.014 c 0.093,0.151 0.083,0.299 0.109,0.485 0.03,0.211 0.033,0.427 0.043,0.659 0.01,0.329 0.03,0.668 0.032,1.003 0,0.143 -0.01,0.287 -0.01,0.429 0.016,0.413 0.011,0.814 0.02,1.219 0.014,0.63 0.056,1.303 0,1.933"
         id="path626"
         style="fill:#ffffff;fill-opacity:1;fill-rule:nonzero;stroke:none" /><path
         d="m 1148.9132,693.60636 c -0.218,-0.025 -0.435,-0.052 -0.652,-0.078 -0.188,-0.03 -0.374,-0.063 -0.578,-0.07 -0.444,-0.085 -0.889,-0.171 -1.334,-0.256 -0.625,-0.127 -1.218,-0.39 -1.792,-0.628 -1.074,-0.444 -2.087,-0.957 -3.062,-1.601 -0.231,-0.152 -1.843,-1.282 -1.843,-1.457 0.263,-0.021 0.526,-0.042 0.788,-0.062 0.633,-0.038 1.295,-0.014 1.924,-0.014 0.388,-0.019 0.777,-0.04 1.166,-0.059 0.153,0.073 0.397,0.035 0.583,0.035 0.532,0 1.038,-0.034 1.544,-0.033 0.261,0.11 0.683,0.014 0.961,0.005 0.857,-0.001 1.716,-0.001 2.573,-0.001 0.961,-0.022 1.923,-0.044 2.883,-0.065 1.773,0.023 3.547,0.048 5.319,0.071 0.132,0.048 0.329,0.002 0.482,0.002 0.307,-0.008 0.617,-0.017 0.925,-0.026 0.16,0.007 0.319,0.015 0.48,0.024 0.302,-0.009 0.636,-0.039 0.961,-0.029 0.069,0.003 0.271,-0.011 0.345,-0.011 0.216,0 -0.175,0.311 -0.243,0.386 -0.223,0.253 -0.472,0.426 -0.736,0.603 -0.158,0.124 -0.317,0.25 -0.475,0.374 -0.324,0.218 -0.648,0.433 -0.972,0.65 -2.028,1.223 -3.984,1.946 -6.503,2.195 -0.366,0.008 -0.73,0.015 -1.096,0.022 -0.533,0.008 -1.106,0.024 -1.648,0.023"
         id="path630"
         style="fill:#ed174f;fill-opacity:1;fill-rule:nonzero;stroke:none" /><path
         d="m 1138.7988,688.72436 c -0.221,-0.224 -0.547,-0.552 -0.768,-0.776 -0.457,-0.616 -0.914,-1.232 -1.371,-1.847 -0.962,-1.621 -1.548,-3.308 -1.963,-5.199 -0.068,-0.302 -0.067,-0.602 -0.096,-0.922 -0.147,-1.558 -0.191,-3.309 0.058,-4.846 0.068,-0.254 0.136,-0.509 0.205,-0.761 0.076,-0.419 0.138,-0.806 0.27,-1.196 0.132,-0.323 0.264,-0.646 0.395,-0.967 0.158,-0.474 0.398,-0.902 0.624,-1.339 0.534,-1.042 1.156,-2.032 1.909,-2.972 0.109,-0.137 0.385,-0.519 0.58,-0.519 l 0,0.035 c 0.152,0.287 0.046,1.158 0.036,1.51 0,0.594 0,1.188 -0.01,1.784 0,0.531 -0.021,1.092 0.01,1.646 0.053,1.184 0.01,2.409 0.025,3.605 0.014,1.011 0.067,2.053 0.065,3.088 0,0.972 -0.058,2.039 0.026,2.982 -0.01,0.104 -0.016,0.208 -0.024,0.314 0,0.297 0,0.594 0,0.891 0.016,0.41 0.033,0.821 0.049,1.232 -0.026,0.883 -0.021,1.782 -0.049,2.681 -0.022,0.631 0.056,1.238 0.032,1.576"
         id="path634"
         style="fill:#ed174f;fill-opacity:1;fill-rule:nonzero;stroke:none" /><path
         d="m 1161.4312,688.62736 c -0.048,-0.603 0.052,-1.543 0.044,-2.18 -0.022,-1.371 -0.027,-2.734 -0.026,-4.154 0,-2.316 0,-4.419 0,-6.657 0,-1.252 -0.064,-2.501 -10e-4,-3.773 0,-0.516 -0.01,-1.031 -0.013,-1.545 0,-0.947 0.109,-1.936 -0.089,-2.846 -0.014,-0.054 -0.135,-0.462 -0.039,-0.462 0.324,0 1.813,2.149 2.02,2.491 0.151,0.274 0.301,0.548 0.45,0.821 0.082,0.187 0.165,0.372 0.247,0.561 0.289,0.511 0.621,1.135 0.814,1.697 0.406,1.193 0.651,2.417 0.822,3.73 0.056,0.43 0.04,0.845 0.046,1.301 0.012,0.241 0.021,0.48 0.032,0.72 -0.021,1.285 -0.172,2.644 -0.503,3.787 -0.328,1.13 -0.84,2.228 -1.402,3.244 -0.197,0.357 -0.44,0.682 -0.659,1.028 -0.295,0.462 -1.554,2.382 -1.748,2.237"
         id="path638"
         style="fill:#ed174f;fill-opacity:1;fill-rule:nonzero;stroke:none" /><path
         d="m 1159.3678,665.37566 c -0.88,-0.662 -2.709,-0.731 -3.872,-0.873 -0.298,-0.039 -0.596,-0.077 -0.895,-0.114 -1.452,-0.069 -3.362,-0.204 -3.885,-1.695 -0.054,-0.16 -0.049,-0.194 -0.103,-0.355 -0.024,-0.143 0.647,-0.007 0.955,-0.007 0.09,0.044 0.234,0.034 0.344,0.034 0.069,0.012 0.138,0.023 0.206,0.034 0.172,0.094 0.436,0.104 0.652,0.105 0.144,0.072 0.338,0.068 0.516,0.068 0.187,0.104 0.648,0.174 0.89,0.174 0.411,0.139 0.821,0.28 1.23,0.423 1.163,0.472 2.398,0.946 3.392,1.741 0.147,0.119 0.333,0.157 0.57,0.465"
         id="path642"
         style="fill:#ed174f;fill-opacity:1;fill-rule:nonzero;stroke:none" /><path
         d="m 1141.2862,665.08406 c 0.258,-0.311 0.624,-0.382 0.945,-0.602 0.183,-0.134 0.451,-0.273 0.632,-0.407 0.703,-0.337 1.234,-0.614 1.952,-0.852 0.791,-0.262 1.563,-0.512 2.413,-0.667 0.287,-0.051 2.246,-0.407 2.318,-0.225 0.118,0.297 -0.52,1.024 -0.742,1.212 -0.207,0.176 -0.458,0.288 -0.686,0.412 -0.219,0.121 -0.476,0.191 -0.718,0.256 -0.32,0.088 -0.629,0.19 -0.969,0.247 -0.326,0.055 -0.648,0.057 -0.992,0.089 -0.299,0.049 -0.597,0.097 -0.896,0.147 -0.387,0.052 -0.775,0.047 -1.161,0.095 -0.711,0.087 -1.373,0.251 -2.096,0.295"
         id="path646"
         style="fill:#ed174f;fill-opacity:1;fill-rule:nonzero;stroke:none" /><path
         d="m 1177.5527,663.94756 0.468,0 0,25.621 -0.468,0 0,-25.621 z"
         id="path648"
         style="fill:#ed174f;fill-opacity:1;fill-rule:nonzero;stroke:none" /></g></g></svg>